<svg data-v-d3f97b9e="" xmlns="http://www.w3.org/2000/svg" viewBox="0 0 639 90"><!----><!----><!----><g data-v-d3f97b9e="" id="9692f8e8-ebd8-470c-ab69-0cd69749a854" fill="black" transform="matrix(4.629629275326784,0,0,4.629629275326784,104.95371740290454,-14.999999611466102)"><path d="M2.61 13.33L1.57 13.33L1.57 13.33Q1.09 13.33 1.09 12.82L1.09 12.82L1.09 4.04L1.09 4.04Q1.09 3.53 1.57 3.53L1.57 3.53L3.55 3.53L3.55 3.53Q3.95 3.53 4.12 4.07L4.12 4.07L5.97 10.07L5.97 10.07Q6.10 10.46 6.15 10.71L6.15 10.71L6.15 10.71Q6.19 10.96 6.23 11.30L6.23 11.30L6.27 11.30L6.27 11.30Q6.30 10.96 6.35 10.71L6.35 10.71L6.35 10.71Q6.40 10.46 6.52 10.07L6.52 10.07L8.37 4.07L8.37 4.07Q8.54 3.53 8.94 3.53L8.94 3.53L10.92 3.53L10.92 3.53Q11.40 3.53 11.40 4.04L11.40 4.04L11.40 12.82L11.40 12.82Q11.40 13.33 10.92 13.33L10.92 13.33L9.88 13.33L9.88 13.33Q9.41 13.33 9.41 12.82L9.41 12.82L9.41 7.17L9.41 7.17Q9.41 6.76 9.44 6.35L9.44 6.35L9.39 6.35L7.42 12.78L7.42 12.78Q7.25 13.33 6.83 13.33L6.83 13.33L5.67 13.33L5.67 13.33Q5.25 13.33 5.08 12.78L5.08 12.78L3.10 6.35L3.06 6.35L3.06 6.35Q3.09 6.76 3.09 7.17L3.09 7.17L3.09 12.82L3.09 12.82Q3.09 13.33 2.61 13.33L2.61 13.33ZM13.04 11.42L13.04 11.42L13.04 11.42Q13.04 10.05 14.35 9.43L14.35 9.43L14.35 9.43Q15.65 8.82 17.33 8.78L17.33 8.78L17.33 8.50L17.33 8.50Q17.33 7.88 17.01 7.62L17.01 7.62L17.01 7.62Q16.70 7.36 16.14 7.36L16.14 7.36L16.14 7.36Q15.74 7.36 15.44 7.47L15.44 7.47L15.44 7.47Q15.13 7.58 14.91 7.73L14.91 7.73L14.91 7.73Q14.69 7.88 14.51 8.03L14.51 8.03L14.51 8.03Q14.20 8.30 13.99 8.05L13.99 8.05L13.43 7.36L13.43 7.36Q13.21 7.10 13.53 6.82L13.53 6.82L13.53 6.82Q13.77 6.61 14.09 6.45L14.09 6.45L14.09 6.45Q14.40 6.30 14.93 6.16L14.93 6.16L14.93 6.16Q15.46 6.02 16.30 6.02L16.30 6.02L16.30 6.02Q17.72 6.02 18.48 6.67L18.48 6.67L18.48 6.67Q19.24 7.33 19.24 8.61L19.24 8.61L19.24 12.92L19.24 12.92Q19.24 13.33 18.83 13.33L18.83 13.33L17.71 13.33L17.71 13.33Q17.34 13.33 17.34 12.92L17.34 12.92L17.34 12.71L17.33 12.71L17.33 12.71Q16.93 13.10 16.36 13.29L16.36 13.29L16.36 13.29Q15.80 13.47 15.33 13.47L15.33 13.47L15.33 13.47Q14.21 13.47 13.62 12.92L13.62 12.92L13.62 12.92Q13.04 12.37 13.04 11.42ZM15.07 11.38L15.07 11.38L15.07 11.38Q15.07 11.61 15.16 11.79L15.16 11.79L15.16 11.79Q15.26 11.96 15.46 12.04L15.46 12.04L15.46 12.04Q15.67 12.13 15.92 12.13L15.92 12.13L15.92 12.13Q16.27 12.13 16.60 12.03L16.60 12.03L16.60 12.03Q16.93 11.94 17.33 11.58L17.33 11.58L17.33 10.10L17.33 10.10Q16.18 10.23 15.79 10.43L15.79 10.43L15.79 10.43Q15.40 10.64 15.23 10.86L15.23 10.86L15.23 10.86Q15.07 11.07 15.07 11.38ZM22.61 13.33L21.51 13.33L21.51 13.33Q21.10 13.33 21.10 12.92L21.10 12.92L21.10 6.56L21.10 6.56Q21.10 6.15 21.51 6.15L21.51 6.15L22.59 6.15L22.59 6.15Q23.00 6.15 23.00 6.56L23.00 6.56L23.00 7.12L23.03 7.12L23.03 7.12Q23.21 6.69 23.63 6.35L23.63 6.35L23.63 6.35Q24.04 6.02 24.61 6.02L24.61 6.02L24.61 6.02Q25.00 6.02 25.25 6.11L25.25 6.11L25.25 6.11Q25.49 6.20 25.44 6.44L25.44 6.44L25.25 7.25L25.25 7.25Q25.18 7.53 24.88 7.42L24.88 7.42L24.88 7.42Q24.70 7.36 24.53 7.36L24.53 7.36L24.53 7.36Q23.88 7.36 23.45 8.14L23.45 8.14L23.45 8.14Q23.02 8.93 23.02 10.43L23.02 10.43L23.02 12.92L23.02 12.92Q23.02 13.33 22.61 13.33L22.61 13.33ZM28.13 13.33L25.85 6.69L25.85 6.69Q25.66 6.15 26.07 6.15L26.07 6.15L27.30 6.15L27.30 6.15Q27.61 6.15 27.71 6.50L27.71 6.50L28.74 10.32L28.74 10.32Q28.81 10.59 28.87 11.01L28.87 11.01L28.87 11.01Q28.93 11.43 28.93 11.55L28.93 11.55L28.97 11.55L28.97 11.55Q29.05 11.18 29.09 10.97L29.09 10.97L29.09 10.97Q29.13 10.75 29.30 10.13L29.30 10.13L30.28 6.50L30.28 6.50Q30.37 6.15 30.69 6.15L30.69 6.15L31.91 6.15L31.91 6.15Q32.31 6.15 32.14 6.69L32.14 6.69L29.83 13.62L29.83 13.62Q29.43 14.83 28.84 15.52L28.84 15.52L28.84 15.52Q28.25 16.20 27.21 16.20L27.21 16.20L27.21 16.20Q26.63 16.20 26.18 16.11L26.18 16.11L26.18 16.11Q25.92 16.05 25.98 15.75L25.98 15.75L26.13 15.00L26.13 15.00Q26.20 14.70 26.48 14.79L26.48 14.79L26.48 14.79Q26.69 14.86 26.88 14.86L26.88 14.86L26.88 14.86Q27.43 14.86 27.72 14.33L27.72 14.33L27.72 14.33Q28.01 13.81 28.11 13.43L28.11 13.43L28.13 13.33ZM40.36 5.28L37.84 5.28L37.84 5.28Q37.33 5.28 37.33 4.83L37.33 4.83L37.33 3.97L37.33 3.97Q37.33 3.53 37.84 3.53L37.84 3.53L44.87 3.53L44.87 3.53Q45.38 3.53 45.38 3.97L45.38 3.97L45.38 4.83L45.38 4.83Q45.38 5.28 44.87 5.28L44.87 5.28L42.36 5.28L42.36 12.95L42.36 12.95Q42.36 13.33 42.01 13.33L42.01 13.33L40.70 13.33L40.70 13.33Q40.36 13.33 40.36 12.95L40.36 12.95L40.36 5.28ZM44.38 10.35L44.38 10.35L44.38 6.56L44.38 6.56Q44.38 6.15 44.79 6.15L44.79 6.15L45.88 6.15L45.88 6.15Q46.29 6.15 46.29 6.56L46.29 6.56L46.29 9.86L46.29 9.86Q46.29 11.35 46.50 11.74L46.50 11.74L46.50 11.74Q46.70 12.13 47.36 12.13L47.36 12.13L47.36 12.13Q48.06 12.13 48.42 11.57L48.42 11.57L48.42 11.57Q48.78 11.01 48.78 9.26L48.78 9.26L48.78 6.56L48.78 6.56Q48.78 6.15 49.19 6.15L49.19 6.15L50.29 6.15L50.29 6.15Q50.70 6.15 50.70 6.56L50.70 6.56L50.70 12.92L50.70 12.92Q50.70 13.33 50.29 13.33L50.29 13.33L49.21 13.33L49.21 13.33Q48.79 13.33 48.79 12.92L48.79 12.92L48.79 12.52L48.77 12.52L48.77 12.52Q48.45 13.06 47.97 13.27L47.97 13.27L47.97 13.27Q47.48 13.47 46.82 13.47L46.82 13.47L46.82 13.47Q45.77 13.47 45.08 12.80L45.08 12.80L45.08 12.80Q44.38 12.13 44.38 10.35ZM52.78 7.52L52.32 7.52L52.32 7.52Q51.91 7.52 51.91 7.18L51.91 7.18L51.91 6.49L51.91 6.49Q51.91 6.15 52.32 6.15L52.32 6.15L52.78 6.15L52.78 5.91L52.78 5.91Q52.78 5.61 52.92 5.35L52.92 5.35L53.45 4.43L53.45 4.43Q53.60 4.17 53.81 4.17L53.81 4.17L54.28 4.17L54.28 4.17Q54.69 4.17 54.69 4.58L54.69 4.58L54.69 6.15L55.80 6.15L55.80 6.15Q56.21 6.15 56.21 6.49L56.21 6.49L56.21 7.18L56.21 7.18Q56.21 7.52 55.80 7.52L55.80 7.52L54.69 7.52L54.69 10.91L54.69 10.91Q54.69 11.61 54.79 11.91L54.79 11.91L54.79 11.91Q54.89 12.22 55.31 12.22L55.31 12.22L55.31 12.22Q55.52 12.22 55.79 12.14L55.79 12.14L55.79 12.14Q56.05 12.07 56.21 12.00L56.21 12.00L56.21 12.00Q56.44 11.89 56.52 12.16L56.52 12.16L56.72 12.94L56.72 12.94Q56.79 13.17 56.55 13.28L56.55 13.28L56.55 13.28Q56.32 13.38 55.93 13.47L55.93 13.47L55.93 13.47Q55.54 13.56 55.14 13.56L55.14 13.56L55.14 13.56Q54.16 13.56 53.47 13.15L53.47 13.15L53.47 13.15Q52.78 12.75 52.78 11.49L52.78 11.49L52.78 7.52ZM57.63 9.74L57.63 9.74L57.63 9.74Q57.63 8.00 58.53 7.01L58.53 7.01L58.53 7.01Q59.42 6.02 61.20 6.02L61.20 6.02L61.20 6.02Q62.98 6.02 63.88 7.01L63.88 7.01L63.88 7.01Q64.78 8.00 64.78 9.74L64.78 9.74L64.78 9.74Q64.78 11.48 63.88 12.48L63.88 12.48L63.88 12.48Q62.98 13.47 61.20 13.47L61.20 13.47L61.20 13.47Q59.42 13.47 58.53 12.48L58.53 12.48L58.53 12.48Q57.63 11.48 57.63 9.74ZM59.65 9.74L59.65 9.74L59.65 9.74Q59.65 11.04 60.05 11.58L60.05 11.58L60.05 11.58Q60.45 12.13 61.20 12.13L61.20 12.13L61.20 12.13Q61.95 12.13 62.35 11.58L62.35 11.58L62.35 11.58Q62.75 11.04 62.75 9.74L62.75 9.74L62.75 9.74Q62.75 8.44 62.35 7.90L62.35 7.90L62.35 7.90Q61.95 7.36 61.20 7.36L61.20 7.36L61.20 7.36Q60.45 7.36 60.05 7.90L60.05 7.90L60.05 7.90Q59.65 8.44 59.65 9.74ZM67.76 13.33L66.66 13.33L66.66 13.33Q66.25 13.33 66.25 12.92L66.25 12.92L66.25 6.56L66.25 6.56Q66.25 6.15 66.66 6.15L66.66 6.15L67.74 6.15L67.74 6.15Q68.15 6.15 68.15 6.56L68.15 6.56L68.15 7.12L68.18 7.12L68.18 7.12Q68.36 6.69 68.78 6.35L68.78 6.35L68.78 6.35Q69.19 6.02 69.76 6.02L69.76 6.02L69.76 6.02Q70.15 6.02 70.40 6.11L70.40 6.11L70.40 6.11Q70.64 6.20 70.59 6.44L70.59 6.44L70.40 7.25L70.40 7.25Q70.33 7.53 70.03 7.42L70.03 7.42L70.03 7.42Q69.85 7.36 69.69 7.36L69.69 7.36L69.69 7.36Q69.03 7.36 68.60 8.14L68.60 8.14L68.60 8.14Q68.17 8.93 68.17 10.43L68.17 10.43L68.17 12.92L68.17 12.92Q68.17 13.33 67.76 13.33L67.76 13.33ZM71.33 12.85L71.33 12.85L71.33 12.85Q71.00 12.61 71.15 12.34L71.15 12.34L71.50 11.70L71.50 11.70Q71.68 11.36 72.07 11.62L72.07 11.62L72.07 11.62Q72.46 11.88 72.99 12.00L72.99 12.00L72.99 12.00Q73.52 12.13 73.96 12.13L73.96 12.13L73.96 12.13Q74.27 12.13 74.53 12.07L74.53 12.07L74.53 12.07Q74.80 12.00 74.98 11.83L74.98 11.83L74.98 11.83Q75.17 11.65 75.17 11.31L75.17 11.31L75.17 11.31Q75.17 11.10 75.06 10.96L75.06 10.96L75.06 10.96Q74.95 10.81 74.78 10.74L74.78 10.74L74.78 10.74Q74.61 10.66 74.42 10.62L74.42 10.62L74.42 10.62Q74.16 10.55 73.69 10.41L73.69 10.41L73.69 10.41Q73.21 10.27 72.78 10.08L72.78 10.08L72.78 10.08Q72.41 9.92 72.07 9.64L72.07 9.64L72.07 9.64Q71.72 9.35 71.56 9.00L71.56 9.00L71.56 9.00Q71.40 8.65 71.40 8.14L71.40 8.14L71.40 8.14Q71.40 7.45 71.80 6.93L71.80 6.93L71.80 6.93Q72.20 6.41 72.84 6.21L72.84 6.21L72.84 6.21Q73.47 6.02 74.42 6.02L74.42 6.02L74.42 6.02Q75.07 6.02 75.67 6.20L75.67 6.20L75.67 6.20Q76.28 6.38 76.54 6.55L76.54 6.55L76.54 6.55Q76.95 6.81 76.75 7.10L76.75 7.10L76.33 7.71L76.33 7.71Q76.14 7.98 75.71 7.75L75.71 7.75L75.71 7.75Q75.39 7.57 75.08 7.46L75.08 7.46L75.08 7.46Q74.77 7.36 74.39 7.36L74.39 7.36L74.39 7.36Q74.13 7.36 73.89 7.41L73.89 7.41L73.89 7.41Q73.65 7.46 73.48 7.62L73.48 7.62L73.48 7.62Q73.32 7.77 73.32 8.01L73.32 8.01L73.32 8.01Q73.32 8.27 73.47 8.42L73.47 8.42L73.47 8.42Q73.62 8.57 73.82 8.63L73.82 8.63L73.82 8.63Q74.03 8.70 74.21 8.76L74.21 8.76L74.21 8.76Q74.59 8.89 74.98 9.00L74.98 9.00L74.98 9.00Q75.37 9.11 75.78 9.27L75.78 9.27L75.78 9.27Q76.13 9.41 76.45 9.66L76.45 9.66L76.45 9.66Q76.78 9.91 76.93 10.30L76.93 10.30L76.93 10.30Q77.08 10.69 77.08 11.19L77.08 11.19L77.08 11.19Q77.08 11.85 76.69 12.42L76.69 12.42L76.69 12.42Q76.29 12.99 75.64 13.23L75.64 13.23L75.64 13.23Q74.99 13.47 74.13 13.47L74.13 13.47L74.13 13.47Q73.17 13.47 72.49 13.33L72.49 13.33L72.49 13.33Q71.81 13.19 71.33 12.85ZM84.96 13.33L83.92 13.33L83.92 13.33Q83.45 13.33 83.45 12.82L83.45 12.82L83.45 4.04L83.45 4.04Q83.45 3.53 83.92 3.53L83.92 3.53L85.91 3.53L85.91 3.53Q86.30 3.53 86.47 4.07L86.47 4.07L88.33 10.07L88.33 10.07Q88.45 10.46 88.50 10.71L88.50 10.71L88.50 10.71Q88.55 10.96 88.58 11.30L88.58 11.30L88.62 11.30L88.62 11.30Q88.66 10.96 88.70 10.71L88.70 10.71L88.70 10.71Q88.75 10.46 88.87 10.07L88.87 10.07L90.73 4.07L90.73 4.07Q90.90 3.53 91.29 3.53L91.29 3.53L93.28 3.53L93.28 3.53Q93.75 3.53 93.75 4.04L93.75 4.04L93.75 12.82L93.75 12.82Q93.75 13.33 93.28 13.33L93.28 13.33L92.24 13.33L92.24 13.33Q91.76 13.33 91.76 12.82L91.76 12.82L91.76 7.17L91.76 7.17Q91.76 6.76 91.79 6.35L91.79 6.35L91.75 6.35L89.77 12.78L89.77 12.78Q89.60 13.33 89.18 13.33L89.18 13.33L88.02 13.33L88.02 13.33Q87.60 13.33 87.43 12.78L87.43 12.78L85.46 6.35L85.41 6.35L85.41 6.35Q85.44 6.76 85.44 7.17L85.44 7.17L85.44 12.82L85.44 12.82Q85.44 13.33 84.96 13.33L84.96 13.33ZM95.40 11.42L95.40 11.42L95.40 11.42Q95.40 10.05 96.70 9.43L96.70 9.43L96.70 9.43Q98.01 8.82 99.68 8.78L99.68 8.78L99.68 8.50L99.68 8.50Q99.68 7.88 99.37 7.62L99.37 7.62L99.37 7.62Q99.05 7.36 98.49 7.36L98.49 7.36L98.49 7.36Q98.10 7.36 97.79 7.47L97.79 7.47L97.79 7.47Q97.49 7.58 97.27 7.73L97.27 7.73L97.27 7.73Q97.04 7.88 96.87 8.03L96.87 8.03L96.87 8.03Q96.55 8.30 96.35 8.05L96.35 8.05L95.78 7.36L95.78 7.36Q95.57 7.10 95.88 6.82L95.88 6.82L95.88 6.82Q96.12 6.61 96.44 6.45L96.44 6.45L96.44 6.45Q96.76 6.30 97.28 6.16L97.28 6.16L97.28 6.16Q97.81 6.02 98.65 6.02L98.65 6.02L98.65 6.02Q100.07 6.02 100.83 6.67L100.83 6.67L100.83 6.67Q101.60 7.33 101.60 8.61L101.60 8.61L101.60 12.92L101.60 12.92Q101.60 13.33 101.19 13.33L101.19 13.33L100.06 13.33L100.06 13.33Q99.70 13.33 99.70 12.92L99.70 12.92L99.70 12.71L99.68 12.71L99.68 12.71Q99.28 13.10 98.71 13.29L98.71 13.29L98.71 13.29Q98.15 13.47 97.68 13.47L97.68 13.47L97.68 13.47Q96.56 13.47 95.98 12.92L95.98 12.92L95.98 12.92Q95.40 12.37 95.40 11.42ZM97.42 11.38L97.42 11.38L97.42 11.38Q97.42 11.61 97.51 11.79L97.51 11.79L97.51 11.79Q97.61 11.96 97.82 12.04L97.82 12.04L97.82 12.04Q98.02 12.13 98.27 12.13L98.27 12.13L98.27 12.13Q98.62 12.13 98.95 12.03L98.95 12.03L98.95 12.03Q99.28 11.94 99.68 11.58L99.68 11.58L99.68 10.10L99.68 10.10Q98.53 10.23 98.14 10.43L98.14 10.43L98.14 10.43Q97.75 10.64 97.59 10.86L97.59 10.86L97.59 10.86Q97.42 11.07 97.42 11.38ZM103.68 7.52L103.22 7.52L103.22 7.52Q102.81 7.52 102.81 7.18L102.81 7.18L102.81 6.49L102.81 6.49Q102.81 6.15 103.22 6.15L103.22 6.15L103.68 6.15L103.68 5.91L103.68 5.91Q103.68 5.61 103.82 5.35L103.82 5.35L104.35 4.43L104.35 4.43Q104.50 4.17 104.71 4.17L104.71 4.17L105.18 4.17L105.18 4.17Q105.59 4.17 105.59 4.58L105.59 4.58L105.59 6.15L106.70 6.15L106.70 6.15Q107.11 6.15 107.11 6.49L107.11 6.49L107.11 7.18L107.11 7.18Q107.11 7.52 106.70 7.52L106.70 7.52L105.59 7.52L105.59 10.91L105.59 10.91Q105.59 11.61 105.69 11.91L105.69 11.91L105.69 11.91Q105.79 12.22 106.21 12.22L106.21 12.22L106.21 12.22Q106.42 12.22 106.69 12.14L106.69 12.14L106.69 12.14Q106.96 12.07 107.11 12.00L107.11 12.00L107.11 12.00Q107.34 11.89 107.42 12.16L107.42 12.16L107.63 12.94L107.63 12.94Q107.69 13.17 107.45 13.28L107.45 13.28L107.45 13.28Q107.22 13.38 106.83 13.47L106.83 13.47L106.83 13.47Q106.44 13.56 106.04 13.56L106.04 13.56L106.04 13.56Q105.06 13.56 104.37 13.15L104.37 13.15L104.37 13.15Q103.68 12.75 103.68 11.49L103.68 11.49L103.68 7.52ZM110.41 13.33L109.32 13.33L109.32 13.33Q108.91 13.33 108.91 12.92L108.91 12.92L108.91 3.65L108.91 3.65Q108.91 3.24 109.32 3.24L109.32 3.24L110.41 3.24L110.41 3.24Q110.82 3.24 110.82 3.65L110.82 3.65L110.82 6.41L110.82 6.41Q110.82 6.69 110.80 6.96L110.80 6.96L110.84 6.96L110.84 6.96Q111.15 6.42 111.64 6.22L111.64 6.22L111.64 6.22Q112.12 6.02 112.81 6.02L112.81 6.02L112.81 6.02Q113.87 6.02 114.57 6.69L114.57 6.69L114.57 6.69Q115.27 7.36 115.27 9.13L115.27 9.13L115.27 12.92L115.27 12.92Q115.27 13.33 114.86 13.33L114.86 13.33L113.76 13.33L113.76 13.33Q113.35 13.33 113.35 12.92L113.35 12.92L113.35 9.63L113.35 9.63Q113.35 8.13 113.15 7.75L113.15 7.75L113.15 7.75Q112.94 7.36 112.27 7.36L112.27 7.36L112.27 7.36Q111.55 7.36 111.19 7.91L111.19 7.91L111.19 7.91Q110.82 8.47 110.82 10.23L110.82 10.23L110.82 12.92L110.82 12.92Q110.82 13.33 110.41 13.33L110.41 13.33Z"></path></g><!----><g data-v-d3f97b9e="" id="a5e9941a-bb52-474b-9337-72a215672536" transform="matrix(1,0,0,1,-4.000003814697266,-5)" stroke="none" fill="black"><path d="M50 51a.997.997 0 0 0 .707-.293l8-8a.999.999 0 1 0-1.414-1.414l-8 8A.999.999 0 0 0 50 51zM50 57a.997.997 0 0 0 .707-.293l8-8a.999.999 0 1 0-1.414-1.414l-8 8A.999.999 0 0 0 50 57zM50 63a.997.997 0 0 0 .707-.293l8-8a.999.999 0 1 0-1.414-1.414l-8 8A.999.999 0 0 0 50 63zM50 69a.997.997 0 0 0 .707-.293l8-8a.999.999 0 1 0-1.414-1.414l-8 8A.999.999 0 0 0 50 69zM50 75a.997.997 0 0 0 .707-.293l8-8a.999.999 0 1 0-1.414-1.414l-8 8A.999.999 0 0 0 50 75zM50 81a.997.997 0 0 0 .707-.293l8-8a.999.999 0 1 0-1.414-1.414l-8 8A.999.999 0 0 0 50 81zM50 87a.997.997 0 0 0 .707-.293l8-8a.999.999 0 1 0-1.414-1.414l-8 8A.999.999 0 0 0 50 87z"></path><path d="M94.93 91.35A.988.988 0 0 0 95 91V43a.997.997 0 0 0-.293-.707C94.328 41.914 85.273 33 73 33c-10.708 0-20.448 6.799-23 8.731C47.448 39.799 37.708 33 27 33c-12.273 0-21.328 8.914-21.707 9.293A.997.997 0 0 0 5 43v48c0 .123.029.238.07.35.013.033.029.063.045.095a.966.966 0 0 0 .14.207c.023.026.045.054.07.078a.997.997 0 0 0 .258.173c.012.006.021.016.032.02l.002.002c.111.045.228.063.344.068.014-.001.025.007.039.007h36.612l-.561 1.684A1 1 0 0 0 43 95h14a1 1 0 0 0 .949-1.316L57.388 92H94c.014 0 .024-.007.037-.008a.968.968 0 0 0 .346-.068l.002-.002c.012-.004.021-.014.032-.02.097-.045.182-.104.258-.173.026-.024.047-.052.07-.078a.966.966 0 0 0 .14-.207c.015-.032.032-.061.045-.094zM27 35c11.491 0 22.26 8.687 22.367 8.774a1 1 0 0 0 1.266 0C50.74 43.686 61.49 35 73 35c10.258 0 18.382 6.946 20 8.431v45.346C89.78 86.138 82.318 81 73 81c-10.708 0-20.448 6.799-23 8.731C47.448 87.799 37.708 81 27 81c-9.318 0-16.78 5.138-20 7.777v-2.363l7.707-7.707a.999.999 0 1 0-1.414-1.414L7 83.586v-3.172l7.707-7.707a.999.999 0 1 0-1.414-1.414L7 77.586v-3.172l7.707-7.707a.999.999 0 1 0-1.414-1.414L7 71.586v-3.172l7.707-7.707a.999.999 0 1 0-1.414-1.414L7 65.586v-3.172l7.707-7.707a.999.999 0 1 0-1.414-1.414L7 59.586v-3.172l7.707-7.707a.999.999 0 1 0-1.414-1.414L7 53.586v-3.172l7.707-7.707a.999.999 0 1 0-1.414-1.414L7 47.586v-4.155C8.618 41.946 16.742 35 27 35zm29 55a1 1 0 0 0-.949 1.316L55.612 93H44.388l.561-1.684A1 1 0 0 0 44 90H8.703c3.223-2.533 10.062-7 18.297-7 11.491 0 22.26 8.687 22.367 8.774a.994.994 0 0 0 1.266-.001C50.74 91.686 61.49 83 73 83c8.235 0 15.074 4.467 18.297 7H56z"></path><path d="M25 51h5v5a1 1 0 1 0 2 0v-5h5a1 1 0 1 0 0-2h-5v-5a1 1 0 1 0-2 0v5h-5a1 1 0 1 0 0 2zM24.293 27.707a.997.997 0 0 0 1.414 0L29 24.414l3.293 3.293a.997.997 0 0 0 1.414 0 .999.999 0 0 0 0-1.414L30.414 23l3.293-3.293a.999.999 0 1 0-1.414-1.414L29 21.586l-3.293-3.293a.999.999 0 1 0-1.414 1.414L27.586 23l-3.293 3.293a.999.999 0 0 0 0 1.414zM66.293 28.707a.997.997 0 0 0 1.414 0l10-10a.999.999 0 1 0-1.414-1.414l-10 10a.999.999 0 0 0 0 1.414zM25 61h12a1 1 0 1 0 0-2H25a1 1 0 1 0 0 2zM68 22c1.654 0 3-1.346 3-3s-1.346-3-3-3-3 1.346-3 3 1.346 3 3 3zm0-4a1.001 1.001 0 1 1-1 1c0-.551.448-1 1-1zM73 27c0 1.654 1.346 3 3 3s3-1.346 3-3-1.346-3-3-3-3 1.346-3 3zm4 0a1.001 1.001 0 0 1-2 0 1.001 1.001 0 0 1 2 0zM43.68 9.944a1.005 1.005 0 0 0 1.267-.622C44.979 9.227 45.776 7 48 7h10a1 1 0 1 0 0-2H48c-3.679 0-4.898 3.533-4.948 3.684a.995.995 0 0 0 .628 1.26z"></path><path d="M48.008 8.876l-.988 7.928c-.311 1.551-.856 2.604-1.58 3.044-.581.353-1.119.204-1.123.203a1 1 0 1 0-.633 1.897c.07.023.428.133.938.133.493 0 1.131-.103 1.79-.485 1.268-.736 2.132-2.216 2.58-4.473l1-8a1 1 0 1 0-1.984-.247zM54.992 9.124a1 1 0 1 0-1.984-.248l-.988 7.928c-.623 3.116.786 4.659 2.313 5.064.306.082.615.12.923.12a3.945 3.945 0 0 0 3.693-2.672 1 1 0 1 0-1.897-.632c-.333.996-1.438 1.457-2.206 1.251-.853-.227-1.168-1.225-.854-2.812l1-7.999zM79.707 50.293a.999.999 0 0 0-1.414 0L76 52.586l-2.293-2.293a.999.999 0 1 0-1.414 1.414L74.586 54l-2.293 2.293a.999.999 0 1 0 1.414 1.414L76 55.414l2.293 2.293a.997.997 0 0 0 1.414 0 .999.999 0 0 0 0-1.414L77.414 54l2.293-2.293a.999.999 0 0 0 0-1.414z"></path><path d="M67.2 58.6a.995.995 0 0 0 .998.38.995.995 0 0 0 .771-.738L71.781 47h8.601l.724 1.447a1 1 0 0 0 1.789-.895l-1-2A1.002 1.002 0 0 0 81 45H71c-.459 0-.858.313-.97.757l-2.491 9.961L65.8 53.4a.998.998 0 1 0-1.599 1.199L67.2 58.6z"></path></g><!----><g data-v-d3f97b9e="" id="0d73fb81-b2f3-4a4c-b888-c2210700159e" fill="black" transform="matrix(0.8217019095450365,0,0,0.8217019095450365,109.57272083763587,57.61706358876377)"><path d="M0.52 12.39C0.52 12.63 0.55 12.68 0.74 12.68C1.06 12.68 2.03 12.64 2.45 12.64C2.87 12.64 7.38 12.68 7.70 12.68C7.83 12.68 7.98 12.66 7.98 12.49C7.98 12.07 8.02 11.23 8.02 10.53C8.02 10.39 7.87 10.39 7.74 10.39C7.63 10.39 7.50 10.39 7.50 10.51C7.49 11.06 7.49 11.41 7.46 11.76C7.43 12.01 7.43 12.04 7.34 12.04C7.18 12.04 4.55 12.08 3.05 12.08C2.98 12.08 2.94 10.11 2.90 8.26C2.90 8.06 2.94 8.09 3.08 8.09L5.36 8.09C6.06 8.09 6.09 8.20 6.09 8.30L6.09 9.00C6.09 9.14 6.27 9.14 6.38 9.14C6.48 9.14 6.61 9.13 6.61 9.02C6.61 8.83 6.58 8.33 6.58 7.83C6.58 7.32 6.61 6.83 6.61 6.71C6.61 6.59 6.47 6.58 6.37 6.58C6.26 6.58 6.09 6.59 6.09 6.72L6.09 7.45C6.09 7.62 5.64 7.63 5.36 7.63L3.02 7.63C2.91 7.63 2.90 7.63 2.90 7.45C2.88 6.75 2.87 6.06 2.87 5.46C2.87 5.12 2.87 3.71 2.95 3.71C4.19 3.71 6.69 3.75 6.69 3.81C6.69 3.99 6.65 4.83 6.65 4.89C6.65 5.04 6.72 5.10 6.90 5.10C7.10 5.10 7.17 5.08 7.17 4.94C7.17 3.85 7.22 3.36 7.22 3.09C7.22 2.91 7.14 2.90 6.94 2.90C6.75 2.90 6.75 2.95 6.72 3.11C6.71 3.25 6.78 3.25 5.87 3.25C5.25 3.25 3.11 3.29 2.34 3.29C1.85 3.29 0.91 3.25 0.81 3.25C0.69 3.25 0.63 3.30 0.63 3.49C0.63 3.72 0.70 3.74 0.87 3.74L1.53 3.74C1.58 3.74 1.65 4.79 1.65 5.71C1.65 5.80 1.71 8.27 1.71 9.83L1.71 11.17C1.71 11.84 1.68 12.18 1.65 12.18L0.80 12.18C0.57 12.18 0.52 12.21 0.52 12.39ZM15.92 12.39C15.92 12.63 15.95 12.68 16.14 12.68C16.38 12.68 16.88 12.64 17.30 12.64C17.72 12.64 18.21 12.68 18.54 12.68C18.70 12.68 18.73 12.61 18.73 12.40C18.73 12.24 18.70 12.18 18.54 12.18L17.57 12.18C17.51 12.18 17.50 11.54 17.50 10.79C17.50 8.96 17.54 6.13 17.61 4.28C17.64 3.88 17.67 3.91 17.81 4.27L21.07 12.32C21.17 12.54 21.24 12.74 21.35 12.74C21.45 12.74 21.52 12.63 21.60 12.45C21.94 11.79 22.12 11.75 22.39 11.09L24.98 4.47C25.10 4.16 25.14 4.02 25.16 4.47C25.19 5.66 25.23 8.47 25.23 9.74C25.23 10.99 25.19 12.18 25.13 12.18L24.50 12.18C24.28 12.18 24.21 12.19 24.21 12.39C24.21 12.63 24.23 12.68 24.43 12.68C24.63 12.68 25.33 12.64 25.93 12.64C26.35 12.64 27.10 12.68 27.43 12.68C27.59 12.68 27.62 12.61 27.62 12.40C27.62 12.22 27.57 12.18 27.40 12.18L26.67 12.18C26.56 12.18 26.46 8.44 26.46 6.03L26.46 4.77C26.46 4.17 26.49 3.77 26.53 3.70L27.19 3.70C27.41 3.70 27.45 3.68 27.45 3.49C27.45 3.25 27.44 3.19 27.24 3.19C26.92 3.19 26.24 3.23 25.82 3.23L25.14 3.23C24.92 3.23 24.89 3.29 24.78 3.58L22.04 10.72C21.95 10.95 21.92 11.02 21.81 10.74L18.87 3.40C18.80 3.22 18.75 3.19 18.61 3.19C18.52 3.19 18.03 3.23 17.72 3.23C17.22 3.23 16.37 3.19 16.17 3.19C16.03 3.19 16.03 3.26 16.03 3.47C16.03 3.64 16.03 3.70 16.17 3.70L16.87 3.70C17.14 3.70 17.14 3.72 17.14 3.84C17.14 4.82 16.93 9.94 16.88 10.79C16.84 11.55 16.84 12.18 16.79 12.18L16.21 12.18C15.99 12.18 15.92 12.19 15.92 12.39ZM35.52 3.51C35.52 3.75 35.56 3.79 35.77 3.79L36.69 3.77C36.75 3.77 36.75 4.47 36.75 5.24L36.75 5.96C36.75 7.70 36.74 12.18 36.62 12.18L35.95 12.18C35.73 12.18 35.66 12.19 35.66 12.39C35.66 12.63 35.67 12.68 35.87 12.68C35.99 12.68 36.97 12.64 37.39 12.64C37.81 12.64 38.68 12.68 39.00 12.68C39.17 12.68 39.20 12.61 39.20 12.40C39.20 12.24 39.17 12.18 39.00 12.18L38.01 12.18C37.97 12.18 37.95 10.60 37.95 9.58L37.95 8.65C37.95 8.57 37.95 8.54 38.05 8.54C38.44 8.54 38.77 8.58 39.27 8.58C41.26 8.58 42.66 7.83 42.66 6.01C42.66 4.09 41.17 3.22 39.26 3.22C38.93 3.22 37.84 3.29 37.42 3.29C37.18 3.29 35.99 3.26 35.77 3.26C35.59 3.26 35.52 3.28 35.52 3.51ZM37.97 8.05L37.97 4.40C37.97 4.05 37.98 3.70 38.02 3.68C38.15 3.67 38.32 3.67 38.46 3.67C40.11 3.67 41.37 4.47 41.37 5.80C41.37 7.57 40.04 8.19 38.46 8.19C38.21 8.19 37.97 8.16 37.97 8.05ZM50.34 8.15C50.34 11.17 52.68 12.80 54.94 12.80C57.72 12.80 59.70 10.89 59.70 8.06C59.70 5.33 57.95 3.11 55.15 3.11C52.54 3.11 50.34 5.10 50.34 8.15ZM51.74 7.77C51.74 5.64 53.03 3.58 55.01 3.58C57.25 3.58 58.32 5.81 58.32 7.94C58.32 10.08 57.22 12.32 54.95 12.32C52.96 12.32 51.74 10.28 51.74 7.77ZM67.10 3.51C67.10 3.75 67.21 3.77 67.38 3.77L67.89 3.77C67.97 3.77 70.11 10.99 70.14 11.07C70.49 12.14 70.60 12.99 70.91 12.99C71.13 12.99 71.23 12.67 71.51 12.26C71.67 12.05 71.76 12.01 71.90 11.66L73.89 6.45C73.96 6.29 73.99 6.20 74.02 6.20C74.05 6.20 74.07 6.29 74.12 6.45C74.72 8.51 75.39 11.03 75.40 11.07C75.75 12.14 75.87 12.99 76.17 12.99C76.40 12.99 76.50 12.67 76.78 12.26C76.93 12.05 77.03 12.01 77.17 11.66L80.26 4.06C80.36 3.81 80.36 3.77 80.72 3.77C80.96 3.77 81.02 3.71 81.02 3.53C81.02 3.32 80.98 3.26 80.78 3.26C80.64 3.26 80.33 3.30 79.83 3.30C79.09 3.30 78.58 3.26 78.39 3.26C78.20 3.26 78.11 3.28 78.11 3.51C78.11 3.75 78.22 3.77 78.39 3.77L79.30 3.77C79.37 3.77 79.38 3.81 79.38 3.95C79.38 4.63 77.78 8.72 77.07 10.63C76.93 10.99 76.86 11.17 76.82 11.17C76.76 11.17 76.71 10.99 76.58 10.60C76.50 10.30 75.57 7.18 75.04 5.22C75.00 5.05 74.79 4.17 74.79 3.85C74.79 3.81 74.79 3.79 74.80 3.77L75.68 3.77C75.87 3.77 75.96 3.75 75.96 3.56C75.96 3.32 75.92 3.26 75.73 3.26C75.40 3.26 74.47 3.30 74.05 3.30C73.63 3.30 72.72 3.26 72.49 3.26C72.31 3.26 72.21 3.28 72.21 3.51C72.21 3.75 72.32 3.77 72.49 3.77L73.29 3.77C73.33 3.77 73.51 4.27 73.67 4.83C73.72 5.05 73.77 5.15 73.77 5.25C73.77 5.31 73.77 5.38 73.72 5.49L71.72 10.60C71.62 10.82 71.60 10.95 71.55 10.95C71.51 10.95 71.48 10.84 71.40 10.60C71.32 10.32 70.31 7.27 69.71 5.22C69.66 5.08 69.34 3.96 69.33 3.85C69.34 3.77 69.38 3.77 69.43 3.77L70.13 3.77C70.35 3.77 70.42 3.75 70.42 3.56C70.42 3.32 70.38 3.26 70.18 3.26C69.86 3.26 69.15 3.30 68.73 3.30C68.31 3.30 67.61 3.26 67.38 3.26C67.20 3.26 67.10 3.28 67.10 3.51ZM88.63 12.39C88.63 12.63 88.66 12.68 88.86 12.68C89.18 12.68 90.15 12.64 90.57 12.64C90.99 12.64 95.49 12.68 95.82 12.68C95.94 12.68 96.10 12.66 96.10 12.49C96.10 12.07 96.14 11.23 96.14 10.53C96.14 10.39 95.98 10.39 95.86 10.39C95.75 10.39 95.62 10.39 95.62 10.51C95.61 11.06 95.61 11.41 95.58 11.76C95.55 12.01 95.55 12.04 95.45 12.04C95.30 12.04 92.67 12.08 91.17 12.08C91.10 12.08 91.06 10.11 91.01 8.26C91.01 8.06 91.06 8.09 91.20 8.09L93.48 8.09C94.18 8.09 94.21 8.20 94.21 8.30L94.21 9.00C94.21 9.14 94.39 9.14 94.50 9.14C94.60 9.14 94.72 9.13 94.72 9.02C94.72 8.83 94.70 8.33 94.70 7.83C94.70 7.32 94.72 6.83 94.72 6.71C94.72 6.59 94.58 6.58 94.49 6.58C94.37 6.58 94.21 6.59 94.21 6.72L94.21 7.45C94.21 7.62 93.76 7.63 93.48 7.63L91.14 7.63C91.03 7.63 91.01 7.63 91.01 7.45C91.00 6.75 90.99 6.06 90.99 5.46C90.99 5.12 90.99 3.71 91.07 3.71C92.30 3.71 94.81 3.75 94.81 3.81C94.81 3.99 94.77 4.83 94.77 4.89C94.77 5.04 94.84 5.10 95.02 5.10C95.21 5.10 95.28 5.08 95.28 4.94C95.28 3.85 95.34 3.36 95.34 3.09C95.34 2.91 95.26 2.90 95.06 2.90C94.86 2.90 94.86 2.95 94.84 3.11C94.82 3.25 94.89 3.25 93.98 3.25C93.37 3.25 91.22 3.29 90.45 3.29C89.96 3.29 89.03 3.25 88.93 3.25C88.80 3.25 88.75 3.30 88.75 3.49C88.75 3.72 88.82 3.74 88.98 3.74L89.64 3.74C89.70 3.74 89.77 4.79 89.77 5.71C89.77 5.80 89.82 8.27 89.82 9.83L89.82 11.17C89.82 11.84 89.80 12.18 89.77 12.18L88.91 12.18C88.69 12.18 88.63 12.21 88.63 12.39ZM104.10 3.51C104.10 3.72 104.17 3.79 104.37 3.79L105.18 3.77C105.28 3.77 105.32 6.61 105.32 8.55L105.32 10.42C105.32 11.30 105.31 12.18 105.27 12.18L104.66 12.18C104.44 12.18 104.37 12.19 104.37 12.39C104.37 12.63 104.41 12.68 104.61 12.68C104.73 12.68 105.56 12.64 105.98 12.64C106.40 12.64 107.17 12.68 107.49 12.68C107.66 12.68 107.69 12.61 107.69 12.40C107.69 12.24 107.66 12.18 107.49 12.18L106.68 12.18C106.61 12.18 106.53 9.18 106.53 8.37C106.53 8.30 106.53 8.26 106.64 8.26C107.03 8.26 107.63 8.27 107.93 8.27C110.17 8.32 110.31 10.00 110.31 11.68L110.31 12.49C110.31 12.61 110.36 12.64 110.46 12.64C110.46 12.64 111.90 12.68 112.38 12.68C112.55 12.68 112.60 12.64 112.60 12.53C112.60 12.24 112.55 12.18 112.39 12.18L111.75 12.18C111.65 12.18 111.62 12.14 111.59 11.31C111.51 8.99 110.14 8.34 109.23 8.05C109.09 8.01 109.12 8.01 109.23 7.95C109.82 7.69 111.13 6.94 111.13 5.63C111.13 3.63 109.44 3.21 108.04 3.21C107.72 3.21 106.43 3.29 106.01 3.29C105.59 3.29 104.61 3.26 104.38 3.26C104.20 3.26 104.10 3.28 104.10 3.51ZM106.53 7.80L106.53 4.40C106.53 4.05 106.55 3.68 106.60 3.68C106.81 3.65 107.09 3.65 107.31 3.65C108.61 3.65 109.86 4.47 109.86 5.82C109.86 6.99 109.31 7.57 108.65 7.88C108.61 7.90 108.57 7.90 108.50 7.90C108.02 7.88 107.31 7.88 106.71 7.87C106.54 7.87 106.53 7.85 106.53 7.80ZM119.94 12.39C119.94 12.63 119.98 12.68 120.18 12.68C120.50 12.68 121.25 12.64 121.97 12.64C122.63 12.64 123.42 12.68 123.65 12.68C123.82 12.68 123.84 12.61 123.84 12.40C123.84 12.24 123.82 12.18 123.65 12.18L122.68 12.18C122.58 12.18 122.56 9.55 122.56 7.76L122.56 5.87C122.56 5.14 122.58 3.70 122.68 3.70L123.59 3.70C123.82 3.70 123.84 3.68 123.84 3.49C123.84 3.25 123.82 3.19 123.65 3.19C123.33 3.19 122.65 3.23 122.00 3.23C121.18 3.23 120.47 3.19 120.25 3.19C120.06 3.19 119.99 3.21 119.99 3.44C119.99 3.68 120.08 3.70 120.25 3.70L121.17 3.70C121.21 3.70 121.28 4.79 121.28 5.71L121.28 7.08C121.28 8.92 121.27 12.18 121.16 12.18L120.23 12.18C120.01 12.18 119.94 12.19 119.94 12.39ZM131.74 12.39C131.74 12.63 131.75 12.68 131.95 12.68C132.13 12.68 132.51 12.64 133.13 12.64C133.76 12.64 134.32 12.68 134.64 12.68C134.81 12.68 134.81 12.61 134.81 12.40C134.81 12.24 134.81 12.18 134.64 12.18L133.43 12.18C133.39 12.18 133.38 11.54 133.38 10.79C133.38 9.46 133.39 7.48 133.39 5.99C133.39 5.25 133.39 4.84 133.41 4.28C133.41 4.02 133.48 4.14 133.60 4.28L140.49 12.66C140.57 12.75 140.66 12.89 140.77 12.89C140.88 12.89 140.95 12.77 140.95 12.54C140.95 12.39 141.12 6.65 141.13 4.48C141.13 4.06 141.16 3.70 141.19 3.70L141.82 3.70C142.04 3.70 142.10 3.68 142.10 3.49C142.10 3.25 142.10 3.19 141.90 3.19C141.71 3.19 141.27 3.23 140.71 3.23C140.10 3.23 139.30 3.19 139.20 3.19C139.03 3.19 139.03 3.26 139.03 3.47C139.03 3.64 139.03 3.70 139.20 3.70L140.50 3.70C140.52 3.70 140.52 4.33 140.52 4.44C140.52 5.85 140.55 8.33 140.55 9.70L140.55 10.29C140.55 10.57 140.53 10.65 140.31 10.37L134.62 3.39C134.51 3.25 134.48 3.19 134.32 3.19C134.23 3.19 133.85 3.23 133.55 3.23C133.25 3.23 132.17 3.19 131.98 3.19C131.81 3.19 131.78 3.26 131.78 3.47C131.78 3.64 131.81 3.70 131.98 3.70L132.89 3.70C132.89 4.17 132.85 8.53 132.78 10.79C132.75 11.69 132.76 12.18 132.65 12.18L132.01 12.18C131.78 12.18 131.74 12.19 131.74 12.39ZM150.21 7.91C150.21 11.40 152.57 12.89 155.16 12.89C157.05 12.89 159.05 11.89 159.05 11.58C159.05 11.12 159.07 10.68 159.07 10.33C159.07 9.81 159.08 9.56 159.21 9.56L159.64 9.56C159.78 9.56 159.80 9.39 159.80 9.30C159.80 9.18 159.78 9.06 159.64 9.06C159.42 9.06 159.05 9.10 158.38 9.10C157.93 9.10 157.19 9.07 156.51 9.06C156.37 9.06 156.37 9.24 156.37 9.35C156.37 9.45 156.39 9.56 156.52 9.56L157.74 9.56C157.78 9.56 157.84 9.87 157.84 10.33C157.84 10.82 157.82 11.41 157.79 11.65C157.78 11.76 157.14 12.39 155.55 12.39C153.31 12.39 151.72 10.29 151.72 7.94C151.72 5.42 153.27 3.54 155.27 3.54C157.16 3.54 158.34 4.87 158.34 5.03C158.34 5.15 158.28 6.12 158.28 6.17C158.28 6.31 158.33 6.36 158.59 6.36C158.79 6.36 158.86 6.33 158.86 6.15C158.86 5.43 158.90 3.75 158.90 3.56C158.90 3.36 158.80 3.33 158.59 3.33C158.37 3.33 158.34 3.39 158.34 3.56L158.34 3.91C158.34 3.99 158.30 4.02 158.17 3.92C157.89 3.72 156.90 3.08 155.33 3.08C152.49 3.08 150.21 4.79 150.21 7.91ZM177.84 5.77C177.84 9.07 182.83 8.20 182.83 10.65C182.83 11.59 181.99 12.31 181.01 12.31C180.18 12.31 178.58 11.83 178.56 11.47L178.47 10.15C178.46 9.97 178.39 9.91 178.21 9.91L178.14 9.91C177.93 9.91 177.93 10.00 177.93 10.12C177.93 10.32 178.04 11.66 178.07 12.17C178.08 12.38 179.34 12.85 180.88 12.85C182.45 12.85 184.06 11.87 184.06 10.11C184.06 6.79 179.09 7.87 179.09 5.32C179.09 4.31 179.87 3.56 180.91 3.56C181.93 3.56 183.02 4.58 183.02 4.89C183.02 5.01 182.98 5.73 182.98 5.78C182.98 5.92 183.02 5.99 183.29 5.99C183.53 5.99 183.54 5.94 183.54 5.75C183.54 5.04 183.62 3.68 183.62 3.53C183.62 3.30 183.58 3.29 183.32 3.29C183.09 3.29 183.08 3.32 183.06 3.53C183.06 3.61 183.05 3.78 183.01 3.78C182.95 3.78 182.87 3.74 182.80 3.68C182 3.14 181.38 3.08 180.88 3.08C179.35 3.08 177.84 4.17 177.84 5.77ZM191.62 5.01C191.62 5.17 191.80 5.17 191.93 5.17C192.08 5.17 192.12 5.15 192.14 4.97L192.25 3.89C192.26 3.81 192.81 3.75 193.56 3.75L195.55 3.75C195.61 3.75 195.64 4.35 195.64 4.97C195.64 6.43 195.58 12.18 195.45 12.18L194.59 12.18C194.36 12.18 194.32 12.19 194.32 12.39C194.32 12.63 194.33 12.68 194.53 12.68C194.85 12.68 195.83 12.64 196.25 12.64C196.67 12.64 197.61 12.68 197.93 12.68C198.10 12.68 198.13 12.61 198.13 12.40C198.13 12.24 198.10 12.18 197.93 12.18L196.94 12.18C196.91 12.18 196.91 11.76 196.91 11.31C196.91 9.56 196.99 5.96 196.99 5.92C197.01 5.18 197.01 3.75 197.11 3.75L198.72 3.75C199.43 3.75 200.26 3.78 200.26 3.85C200.26 3.99 200.21 4.90 200.21 4.97C200.21 5.12 200.28 5.17 200.47 5.17C200.66 5.17 200.73 5.17 200.73 5.03C200.73 3.93 200.79 3.40 200.79 3.14C200.79 2.94 200.70 2.94 200.51 2.94C200.35 2.94 200.30 2.98 200.28 3.16C200.28 3.23 199.64 3.28 198.80 3.28L193.80 3.28C193.14 3.28 192.33 3.28 192.33 3.21L192.33 3.07C192.33 2.94 192.21 2.94 192.11 2.94C191.88 2.94 191.86 3.00 191.84 3.19C191.79 3.89 191.62 4.97 191.62 5.01ZM208.54 3.51C208.54 3.75 208.63 3.77 208.80 3.77L209.33 3.77C209.38 3.77 209.38 4.12 209.38 4.55C209.38 5.66 209.37 8.96 209.37 9.42C209.37 11.13 209.62 12.80 212.48 12.80C213.56 12.80 214.72 12.38 215.38 12.00C215.63 11.86 215.92 11.72 216.01 11.72C216.27 11.72 216.54 12.74 216.87 12.74C217.20 12.74 217.21 12.35 217.21 12.25C217.21 11.96 217.27 10.08 217.31 8.16C217.36 6.12 217.35 3.77 217.46 3.77L217.78 3.77C218.01 3.77 218.08 3.75 218.08 3.56C218.08 3.32 218.04 3.26 217.84 3.26C217.70 3.26 217.17 3.30 216.75 3.30C216.33 3.30 215.53 3.26 215.31 3.26C215.12 3.26 215.03 3.28 215.03 3.51C215.03 3.75 215.14 3.77 215.31 3.77L216.01 3.77C216.08 3.77 216.09 4.30 216.09 4.87L216.09 9.14C216.09 11.19 216.09 11.12 215.75 11.34C215.36 11.61 214.55 12.08 213.37 12.08C211.40 12.08 210.60 11.17 210.60 9.41C210.60 8.82 210.67 3.77 210.78 3.77L211.69 3.77C211.92 3.77 211.96 3.75 211.96 3.56C211.96 3.32 211.95 3.26 211.75 3.26C211.43 3.26 210.55 3.30 210.13 3.30C209.71 3.30 209.02 3.26 208.80 3.26C208.61 3.26 208.54 3.28 208.54 3.51ZM226.04 12.46C226.04 12.63 226.06 12.70 226.24 12.70C226.39 12.70 227.63 12.64 228.02 12.64C228.87 12.64 229.75 12.70 230.61 12.70C233.23 12.70 235.62 11.07 235.62 7.91C235.62 4.89 233.28 3.07 230.24 3.07C229.68 3.07 228.42 3.23 227.39 3.23C226.91 3.23 226.45 3.22 226.39 3.22C226.21 3.22 226.20 3.32 226.20 3.49C226.20 3.68 226.27 3.70 226.39 3.70L227.36 3.67C227.39 3.67 227.39 4.20 227.39 4.72C227.39 5.91 227.30 12.21 227.22 12.21L226.32 12.21C226.14 12.21 226.04 12.22 226.04 12.46ZM228.62 11.40C228.62 9.46 228.62 7.52 228.63 5.60C228.63 5.03 228.68 3.61 228.72 3.60C229.01 3.53 229.60 3.51 229.95 3.51C232.51 3.51 234.12 5.75 234.12 7.73C234.12 8.95 234.08 12.25 229.40 12.25C229.14 12.25 228.73 12.25 228.63 12.21C228.62 12.19 228.62 11.79 228.62 11.40ZM243.73 12.39C243.73 12.63 243.75 12.68 243.95 12.68C244.27 12.68 245.24 12.64 245.66 12.64C246.08 12.64 250.59 12.68 250.91 12.68C251.03 12.68 251.19 12.66 251.19 12.49C251.19 12.07 251.23 11.23 251.23 10.53C251.23 10.39 251.08 10.39 250.95 10.39C250.84 10.39 250.71 10.39 250.71 10.51C250.70 11.06 250.70 11.41 250.67 11.76C250.64 12.01 250.64 12.04 250.54 12.04C250.39 12.04 247.76 12.08 246.26 12.08C246.19 12.08 246.15 10.11 246.11 8.26C246.11 8.06 246.15 8.09 246.29 8.09L248.57 8.09C249.27 8.09 249.30 8.20 249.30 8.30L249.30 9.00C249.30 9.14 249.48 9.14 249.59 9.14C249.69 9.14 249.82 9.13 249.82 9.02C249.82 8.83 249.79 8.33 249.79 7.83C249.79 7.32 249.82 6.83 249.82 6.71C249.82 6.59 249.68 6.58 249.58 6.58C249.47 6.58 249.30 6.59 249.30 6.72L249.30 7.45C249.30 7.62 248.85 7.63 248.57 7.63L246.23 7.63C246.12 7.63 246.11 7.63 246.11 7.45C246.09 6.75 246.08 6.06 246.08 5.46C246.08 5.12 246.08 3.71 246.16 3.71C247.39 3.71 249.90 3.75 249.90 3.81C249.90 3.99 249.86 4.83 249.86 4.89C249.86 5.04 249.93 5.10 250.11 5.10C250.31 5.10 250.38 5.08 250.38 4.94C250.38 3.85 250.43 3.36 250.43 3.09C250.43 2.91 250.35 2.90 250.15 2.90C249.96 2.90 249.96 2.95 249.93 3.11C249.91 3.25 249.98 3.25 249.07 3.25C248.46 3.25 246.32 3.29 245.55 3.29C245.06 3.29 244.12 3.25 244.02 3.25C243.89 3.25 243.84 3.30 243.84 3.49C243.84 3.72 243.91 3.74 244.08 3.74L244.73 3.74C244.79 3.74 244.86 4.79 244.86 5.71C244.86 5.80 244.92 8.27 244.92 9.83L244.92 11.17C244.92 11.84 244.89 12.18 244.86 12.18L244.01 12.18C243.78 12.18 243.73 12.21 243.73 12.39ZM259.20 12.39C259.20 12.63 259.21 12.68 259.41 12.68C259.59 12.68 259.97 12.64 260.58 12.64C261.21 12.64 261.77 12.68 262.09 12.68C262.26 12.68 262.26 12.61 262.26 12.40C262.26 12.24 262.26 12.18 262.09 12.18L260.89 12.18C260.85 12.18 260.83 11.54 260.83 10.79C260.83 9.46 260.85 7.48 260.85 5.99C260.85 5.25 260.85 4.84 260.86 4.28C260.86 4.02 260.93 4.14 261.06 4.28L267.95 12.66C268.03 12.75 268.11 12.89 268.23 12.89C268.34 12.89 268.41 12.77 268.41 12.54C268.41 12.39 268.58 6.65 268.59 4.48C268.59 4.06 268.62 3.70 268.65 3.70L269.28 3.70C269.50 3.70 269.56 3.68 269.56 3.49C269.56 3.25 269.56 3.19 269.36 3.19C269.16 3.19 268.73 3.23 268.17 3.23C267.55 3.23 266.76 3.19 266.66 3.19C266.49 3.19 266.49 3.26 266.49 3.47C266.49 3.64 266.49 3.70 266.66 3.70L267.96 3.70C267.97 3.70 267.97 4.33 267.97 4.44C267.97 5.85 268.00 8.33 268.00 9.70L268.00 10.29C268.00 10.57 267.99 10.65 267.76 10.37L262.08 3.39C261.97 3.25 261.94 3.19 261.77 3.19C261.69 3.19 261.31 3.23 261.00 3.23C260.71 3.23 259.63 3.19 259.43 3.19C259.27 3.19 259.24 3.26 259.24 3.47C259.24 3.64 259.27 3.70 259.43 3.70L260.34 3.70C260.34 4.17 260.30 8.53 260.23 10.79C260.20 11.69 260.22 12.18 260.11 12.18L259.46 12.18C259.24 12.18 259.20 12.19 259.20 12.39ZM277.33 5.01C277.33 5.17 277.51 5.17 277.63 5.17C277.79 5.17 277.83 5.15 277.84 4.97L277.96 3.89C277.97 3.81 278.52 3.75 279.27 3.75L281.26 3.75C281.32 3.75 281.34 4.35 281.34 4.97C281.34 6.43 281.29 12.18 281.16 12.18L280.29 12.18C280.07 12.18 280.03 12.19 280.03 12.39C280.03 12.63 280.04 12.68 280.24 12.68C280.56 12.68 281.54 12.64 281.96 12.64C282.38 12.64 283.32 12.68 283.64 12.68C283.81 12.68 283.84 12.61 283.84 12.40C283.84 12.24 283.81 12.18 283.64 12.18L282.65 12.18C282.62 12.18 282.62 11.76 282.62 11.31C282.62 9.56 282.70 5.96 282.70 5.92C282.72 5.18 282.72 3.75 282.81 3.75L284.42 3.75C285.14 3.75 285.96 3.78 285.96 3.85C285.96 3.99 285.92 4.90 285.92 4.97C285.92 5.12 285.99 5.17 286.17 5.17C286.37 5.17 286.44 5.17 286.44 5.03C286.44 3.93 286.50 3.40 286.50 3.14C286.50 2.94 286.41 2.94 286.22 2.94C286.06 2.94 286.01 2.98 285.99 3.16C285.99 3.23 285.35 3.28 284.51 3.28L279.51 3.28C278.85 3.28 278.04 3.28 278.04 3.21L278.04 3.07C278.04 2.94 277.91 2.94 277.82 2.94C277.59 2.94 277.56 3.00 277.55 3.19C277.49 3.89 277.33 4.97 277.33 5.01ZM294.46 5.77C294.46 9.07 299.45 8.20 299.45 10.65C299.45 11.59 298.61 12.31 297.63 12.31C296.80 12.31 295.20 11.83 295.18 11.47L295.09 10.15C295.08 9.97 295.01 9.91 294.83 9.91L294.76 9.91C294.55 9.91 294.55 10.00 294.55 10.12C294.55 10.32 294.66 11.66 294.69 12.17C294.70 12.38 295.96 12.85 297.50 12.85C299.07 12.85 300.68 11.87 300.68 10.11C300.68 6.79 295.71 7.87 295.71 5.32C295.71 4.31 296.49 3.56 297.53 3.56C298.55 3.56 299.64 4.58 299.64 4.89C299.64 5.01 299.60 5.73 299.60 5.78C299.60 5.92 299.64 5.99 299.91 5.99C300.15 5.99 300.16 5.94 300.16 5.75C300.16 5.04 300.24 3.68 300.24 3.53C300.24 3.30 300.20 3.29 299.94 3.29C299.71 3.29 299.70 3.32 299.68 3.53C299.68 3.61 299.67 3.78 299.63 3.78C299.57 3.78 299.49 3.74 299.42 3.68C298.62 3.14 298.00 3.08 297.50 3.08C295.97 3.08 294.46 4.17 294.46 5.77ZM318.18 5.01C318.18 5.17 318.36 5.17 318.49 5.17C318.64 5.17 318.68 5.15 318.70 4.97L318.81 3.89C318.82 3.81 319.37 3.75 320.12 3.75L322.11 3.75C322.17 3.75 322.20 4.35 322.20 4.97C322.20 6.43 322.14 12.18 322.01 12.18L321.15 12.18C320.92 12.18 320.88 12.19 320.88 12.39C320.88 12.63 320.89 12.68 321.09 12.68C321.41 12.68 322.39 12.64 322.81 12.64C323.23 12.64 324.17 12.68 324.49 12.68C324.66 12.68 324.69 12.61 324.69 12.40C324.69 12.24 324.66 12.18 324.49 12.18L323.50 12.18C323.47 12.18 323.47 11.76 323.47 11.31C323.47 9.56 323.55 5.96 323.55 5.92C323.57 5.18 323.57 3.75 323.67 3.75L325.28 3.75C325.99 3.75 326.82 3.78 326.82 3.85C326.82 3.99 326.77 4.90 326.77 4.97C326.77 5.12 326.84 5.17 327.03 5.17C327.22 5.17 327.29 5.17 327.29 5.03C327.29 3.93 327.35 3.40 327.35 3.14C327.35 2.94 327.26 2.94 327.07 2.94C326.91 2.94 326.86 2.98 326.84 3.16C326.84 3.23 326.20 3.28 325.36 3.28L320.36 3.28C319.70 3.28 318.89 3.28 318.89 3.21L318.89 3.07C318.89 2.94 318.77 2.94 318.67 2.94C318.44 2.94 318.42 3.00 318.40 3.19C318.35 3.89 318.18 4.97 318.18 5.01ZM334.61 8.15C334.61 11.17 336.95 12.80 339.21 12.80C341.99 12.80 343.97 10.89 343.97 8.06C343.97 5.33 342.22 3.11 339.42 3.11C336.81 3.11 334.61 5.10 334.61 8.15ZM336.01 7.77C336.01 5.64 337.30 3.58 339.28 3.58C341.52 3.58 342.59 5.81 342.59 7.94C342.59 10.08 341.49 12.32 339.22 12.32C337.23 12.32 336.01 10.28 336.01 7.77ZM361.87 12.39C361.87 12.63 361.90 12.68 362.10 12.68C362.42 12.68 363.38 12.64 363.80 12.64C364.22 12.64 368.58 12.68 368.90 12.68C369.17 12.68 369.24 12.66 369.25 12.49C369.31 12.08 369.54 10.72 369.54 10.60C369.54 10.47 369.39 10.44 369.22 10.43C369.12 10.42 369.04 10.46 369.03 10.56L368.86 11.76C368.82 12.05 368.80 12.03 368.58 12.04C368.42 12.05 365.92 12.12 364.49 12.12C364.45 12.12 364.41 11.38 364.41 10.54L364.41 6.66C364.41 5.40 364.42 3.70 364.52 3.70L365.50 3.70C365.74 3.70 365.76 3.63 365.76 3.44C365.76 3.23 365.75 3.19 365.51 3.19C365.19 3.19 364.25 3.23 363.83 3.23C363.41 3.23 362.47 3.19 362.25 3.19C362.03 3.19 361.97 3.22 361.97 3.44C361.97 3.65 362.01 3.70 362.21 3.70L363.03 3.70C363.08 3.70 363.10 4.23 363.10 4.90L363.10 8.13C363.10 10.07 363.08 12.18 362.99 12.18L362.15 12.18C361.93 12.18 361.87 12.21 361.87 12.39ZM377.16 12.39C377.16 12.63 377.19 12.68 377.38 12.68C377.71 12.68 378.67 12.64 379.09 12.64C379.51 12.64 384.02 12.68 384.34 12.68C384.47 12.68 384.62 12.66 384.62 12.49C384.62 12.07 384.66 11.23 384.66 10.53C384.66 10.39 384.51 10.39 384.38 10.39C384.27 10.39 384.15 10.39 384.15 10.51C384.13 11.06 384.13 11.41 384.10 11.76C384.08 12.01 384.08 12.04 383.98 12.04C383.82 12.04 381.19 12.08 379.69 12.08C379.62 12.08 379.58 10.11 379.54 8.26C379.54 8.06 379.58 8.09 379.72 8.09L382.00 8.09C382.70 8.09 382.73 8.20 382.73 8.30L382.73 9.00C382.73 9.14 382.91 9.14 383.03 9.14C383.12 9.14 383.25 9.13 383.25 9.02C383.25 8.83 383.22 8.33 383.22 7.83C383.22 7.32 383.25 6.83 383.25 6.71C383.25 6.59 383.11 6.58 383.01 6.58C382.90 6.58 382.73 6.59 382.73 6.72L382.73 7.45C382.73 7.62 382.28 7.63 382.00 7.63L379.67 7.63C379.55 7.63 379.54 7.63 379.54 7.45C379.53 6.75 379.51 6.06 379.51 5.46C379.51 5.12 379.51 3.71 379.60 3.71C380.83 3.71 383.33 3.75 383.33 3.81C383.33 3.99 383.29 4.83 383.29 4.89C383.29 5.04 383.36 5.10 383.54 5.10C383.74 5.10 383.81 5.08 383.81 4.94C383.81 3.85 383.87 3.36 383.87 3.09C383.87 2.91 383.78 2.90 383.59 2.90C383.39 2.90 383.39 2.95 383.36 3.11C383.35 3.25 383.42 3.25 382.51 3.25C381.89 3.25 379.75 3.29 378.98 3.29C378.49 3.29 377.55 3.25 377.45 3.25C377.33 3.25 377.27 3.30 377.27 3.49C377.27 3.72 377.34 3.74 377.51 3.74L378.17 3.74C378.22 3.74 378.29 4.79 378.29 5.71C378.29 5.80 378.35 8.27 378.35 9.83L378.35 11.17C378.35 11.84 378.32 12.18 378.29 12.18L377.44 12.18C377.22 12.18 377.16 12.21 377.16 12.39ZM392.49 12.39C392.49 12.63 392.49 12.68 392.69 12.68C392.85 12.68 393.18 12.64 393.75 12.64C394.37 12.64 394.91 12.68 395.07 12.68C395.23 12.68 395.23 12.61 395.23 12.40C395.23 12.24 395.23 12.18 395.07 12.18L393.99 12.18C393.99 12.18 393.97 12.18 393.97 12.17C393.99 11.87 394.76 9.90 395.11 9.02C395.18 8.83 395.19 8.79 395.40 8.79L398.23 8.79C398.37 8.79 398.37 8.81 398.44 9.03C398.71 9.77 399.42 11.89 399.42 12.17C399.42 12.18 399.41 12.18 399.41 12.18L398.64 12.18C398.41 12.18 398.40 12.19 398.40 12.39C398.40 12.63 398.41 12.68 398.58 12.68C398.90 12.68 399.77 12.64 400.19 12.64C400.61 12.64 401.28 12.68 401.49 12.68C401.63 12.68 401.65 12.61 401.65 12.40C401.65 12.24 401.63 12.18 401.49 12.18L401.00 12.18C400.90 12.18 399.88 9.34 399.32 7.78L397.64 3.07C397.63 3.00 397.56 2.94 397.47 2.94C397.35 2.94 397.25 3.16 397.17 3.35C397.01 3.71 396.77 3.84 396.66 4.13L395.18 7.57C395.00 8.01 393.29 12.18 393.16 12.18L392.74 12.18C392.52 12.18 392.49 12.19 392.49 12.39ZM395.39 8.33C395.39 8.30 395.42 8.23 395.46 8.13L396.83 4.77C396.87 4.66 396.90 4.61 396.93 4.61C396.94 4.61 396.96 4.63 397.00 4.77L398.16 8.18C398.19 8.25 398.20 8.29 398.20 8.32C398.20 8.36 398.17 8.37 398.08 8.37L395.57 8.37C395.39 8.37 395.39 8.34 395.39 8.33ZM409.40 3.51C409.40 3.72 409.47 3.79 409.67 3.79L410.48 3.77C410.58 3.77 410.62 6.61 410.62 8.55L410.62 10.42C410.62 11.30 410.61 12.18 410.56 12.18L409.96 12.18C409.74 12.18 409.67 12.19 409.67 12.39C409.67 12.63 409.71 12.68 409.91 12.68C410.03 12.68 410.86 12.64 411.28 12.64C411.70 12.64 412.47 12.68 412.79 12.68C412.96 12.68 412.99 12.61 412.99 12.40C412.99 12.24 412.96 12.18 412.79 12.18L411.98 12.18C411.91 12.18 411.82 9.18 411.82 8.37C411.82 8.30 411.82 8.26 411.94 8.26C412.33 8.26 412.93 8.27 413.22 8.27C415.46 8.32 415.60 10.00 415.60 11.68L415.60 12.49C415.60 12.61 415.66 12.64 415.76 12.64C415.76 12.64 417.20 12.68 417.68 12.68C417.84 12.68 417.90 12.64 417.90 12.53C417.90 12.24 417.84 12.18 417.69 12.18L417.05 12.18C416.95 12.18 416.92 12.14 416.89 11.31C416.81 8.99 415.44 8.34 414.53 8.05C414.39 8.01 414.41 8.01 414.53 7.95C415.11 7.69 416.43 6.94 416.43 5.63C416.43 3.63 414.74 3.21 413.34 3.21C413.01 3.21 411.73 3.29 411.31 3.29C410.89 3.29 409.91 3.26 409.68 3.26C409.50 3.26 409.40 3.28 409.40 3.51ZM411.82 7.80L411.82 4.40C411.82 4.05 411.85 3.68 411.89 3.68C412.10 3.65 412.38 3.65 412.61 3.65C413.91 3.65 415.16 4.47 415.16 5.82C415.16 6.99 414.61 7.57 413.95 7.88C413.91 7.90 413.87 7.90 413.80 7.90C413.32 7.88 412.61 7.88 412.01 7.87C411.84 7.87 411.82 7.85 411.82 7.80ZM425.38 12.39C425.38 12.63 425.39 12.68 425.59 12.68C425.77 12.68 426.15 12.64 426.76 12.64C427.39 12.64 427.95 12.68 428.27 12.68C428.44 12.68 428.44 12.61 428.44 12.40C428.44 12.24 428.44 12.18 428.27 12.18L427.07 12.18C427.03 12.18 427.01 11.54 427.01 10.79C427.01 9.46 427.03 7.48 427.03 5.99C427.03 5.25 427.03 4.84 427.04 4.28C427.04 4.02 427.11 4.14 427.24 4.28L434.13 12.66C434.21 12.75 434.29 12.89 434.41 12.89C434.52 12.89 434.59 12.77 434.59 12.54C434.59 12.39 434.76 6.65 434.77 4.48C434.77 4.06 434.80 3.70 434.83 3.70L435.46 3.70C435.68 3.70 435.74 3.68 435.74 3.49C435.74 3.25 435.74 3.19 435.54 3.19C435.34 3.19 434.91 3.23 434.35 3.23C433.73 3.23 432.94 3.19 432.84 3.19C432.67 3.19 432.67 3.26 432.67 3.47C432.67 3.64 432.67 3.70 432.84 3.70L434.14 3.70C434.15 3.70 434.15 4.33 434.15 4.44C434.15 5.85 434.18 8.33 434.18 9.70L434.18 10.29C434.18 10.57 434.17 10.65 433.94 10.37L428.26 3.39C428.15 3.25 428.12 3.19 427.95 3.19C427.87 3.19 427.49 3.23 427.18 3.23C426.89 3.23 425.81 3.19 425.61 3.19C425.45 3.19 425.42 3.26 425.42 3.47C425.42 3.64 425.45 3.70 425.61 3.70L426.52 3.70C426.52 4.17 426.48 8.53 426.41 10.79C426.38 11.69 426.40 12.18 426.29 12.18L425.64 12.18C425.42 12.18 425.38 12.19 425.38 12.39ZM453.50 12.39C453.50 12.63 453.53 12.68 453.73 12.68C453.96 12.68 454.47 12.64 454.89 12.64C455.31 12.64 455.80 12.68 456.12 12.68C456.29 12.68 456.32 12.61 456.32 12.40C456.32 12.24 456.29 12.18 456.12 12.18L455.15 12.18C455.10 12.18 455.08 11.54 455.08 10.79C455.08 8.96 455.13 6.13 455.20 4.28C455.22 3.88 455.25 3.91 455.39 4.27L458.65 12.32C458.75 12.54 458.82 12.74 458.93 12.74C459.03 12.74 459.10 12.63 459.19 12.45C459.52 11.79 459.70 11.75 459.97 11.09L462.56 4.47C462.69 4.16 462.73 4.02 462.74 4.47C462.77 5.66 462.81 8.47 462.81 9.74C462.81 10.99 462.77 12.18 462.71 12.18L462.08 12.18C461.86 12.18 461.79 12.19 461.79 12.39C461.79 12.63 461.82 12.68 462.01 12.68C462.21 12.68 462.91 12.64 463.51 12.64C463.93 12.64 464.69 12.68 465.01 12.68C465.18 12.68 465.21 12.61 465.21 12.40C465.21 12.22 465.15 12.18 464.98 12.18L464.25 12.18C464.14 12.18 464.04 8.44 464.04 6.03L464.04 4.77C464.04 4.17 464.07 3.77 464.11 3.70L464.77 3.70C465.00 3.70 465.04 3.68 465.04 3.49C465.04 3.25 465.02 3.19 464.83 3.19C464.51 3.19 463.82 3.23 463.40 3.23L462.73 3.23C462.50 3.23 462.48 3.29 462.36 3.58L459.62 10.72C459.54 10.95 459.51 11.02 459.40 10.74L456.46 3.40C456.39 3.22 456.33 3.19 456.19 3.19C456.11 3.19 455.62 3.23 455.31 3.23C454.80 3.23 453.95 3.19 453.75 3.19C453.61 3.19 453.61 3.26 453.61 3.47C453.61 3.64 453.61 3.70 453.75 3.70L454.45 3.70C454.72 3.70 454.72 3.72 454.72 3.84C454.72 4.82 454.51 9.94 454.47 10.79C454.43 11.55 454.43 12.18 454.37 12.18L453.80 12.18C453.57 12.18 453.50 12.19 453.50 12.39ZM472.96 12.39C472.96 12.63 472.96 12.68 473.16 12.68C473.33 12.68 473.65 12.64 474.22 12.64C474.84 12.64 475.38 12.68 475.54 12.68C475.71 12.68 475.71 12.61 475.71 12.40C475.71 12.24 475.71 12.18 475.54 12.18L474.46 12.18C474.46 12.18 474.45 12.18 474.45 12.17C474.46 11.87 475.23 9.90 475.58 9.02C475.65 8.83 475.66 8.79 475.87 8.79L478.70 8.79C478.84 8.79 478.84 8.81 478.91 9.03C479.18 9.77 479.89 11.89 479.89 12.17C479.89 12.18 479.88 12.18 479.88 12.18L479.11 12.18C478.88 12.18 478.87 12.19 478.87 12.39C478.87 12.63 478.88 12.68 479.05 12.68C479.37 12.68 480.24 12.64 480.66 12.64C481.08 12.64 481.75 12.68 481.96 12.68C482.10 12.68 482.12 12.61 482.12 12.40C482.12 12.24 482.10 12.18 481.96 12.18L481.47 12.18C481.38 12.18 480.35 9.34 479.79 7.78L478.11 3.07C478.10 3.00 478.03 2.94 477.95 2.94C477.82 2.94 477.72 3.16 477.64 3.35C477.48 3.71 477.25 3.84 477.13 4.13L475.65 7.57C475.47 8.01 473.76 12.18 473.63 12.18L473.21 12.18C472.99 12.18 472.96 12.19 472.96 12.39ZM475.86 8.33C475.86 8.30 475.89 8.23 475.93 8.13L477.30 4.77C477.34 4.66 477.37 4.61 477.40 4.61C477.41 4.61 477.43 4.63 477.47 4.77L478.63 8.18C478.66 8.25 478.67 8.29 478.67 8.32C478.67 8.36 478.65 8.37 478.55 8.37L476.04 8.37C475.86 8.37 475.86 8.34 475.86 8.33ZM488.21 5.01C488.21 5.17 488.39 5.17 488.52 5.17C488.67 5.17 488.71 5.15 488.73 4.97L488.84 3.89C488.85 3.81 489.40 3.75 490.15 3.75L492.14 3.75C492.20 3.75 492.23 4.35 492.23 4.97C492.23 6.43 492.17 12.18 492.04 12.18L491.18 12.18C490.95 12.18 490.91 12.19 490.91 12.39C490.91 12.63 490.92 12.68 491.12 12.68C491.44 12.68 492.42 12.64 492.84 12.64C493.26 12.64 494.20 12.68 494.52 12.68C494.69 12.68 494.72 12.61 494.72 12.40C494.72 12.24 494.69 12.18 494.52 12.18L493.53 12.18C493.50 12.18 493.50 11.76 493.50 11.31C493.50 9.56 493.58 5.96 493.58 5.92C493.60 5.18 493.60 3.75 493.70 3.75L495.31 3.75C496.02 3.75 496.85 3.78 496.85 3.85C496.85 3.99 496.80 4.90 496.80 4.97C496.80 5.12 496.87 5.17 497.06 5.17C497.25 5.17 497.32 5.17 497.32 5.03C497.32 3.93 497.38 3.40 497.38 3.14C497.38 2.94 497.29 2.94 497.10 2.94C496.94 2.94 496.89 2.98 496.87 3.16C496.87 3.23 496.23 3.28 495.39 3.28L490.39 3.28C489.73 3.28 488.92 3.28 488.92 3.21L488.92 3.07C488.92 2.94 488.80 2.94 488.70 2.94C488.47 2.94 488.45 3.00 488.43 3.19C488.38 3.89 488.21 4.97 488.21 5.01ZM505.13 12.39C505.13 12.63 505.13 12.68 505.33 12.68C505.65 12.68 506.59 12.64 507.01 12.64C507.43 12.64 508.26 12.68 508.58 12.68C508.75 12.68 508.75 12.61 508.75 12.40C508.75 12.24 508.75 12.18 508.58 12.18L507.65 12.18C507.57 12.18 507.53 9.93 507.53 8.20C507.53 8.01 507.53 8.01 507.65 8.01L512.89 8.01C512.96 8.01 512.97 8.01 512.97 8.18L512.97 9.91C512.97 11.05 512.96 12.18 512.90 12.18L512.13 12.18C511.91 12.18 511.87 12.19 511.87 12.39C511.87 12.63 511.88 12.68 512.08 12.68C512.40 12.68 513.24 12.64 513.66 12.64C514.08 12.64 514.67 12.68 514.99 12.68C515.16 12.68 515.17 12.61 515.17 12.40C515.17 12.24 515.16 12.18 514.99 12.18L514.25 12.18C514.21 12.18 514.19 9.27 514.19 7.04C514.19 5.40 514.19 3.70 514.23 3.70L514.85 3.70C515.07 3.70 515.12 3.68 515.12 3.49C515.12 3.25 515.10 3.19 514.91 3.19C514.77 3.19 514.14 3.23 513.55 3.23C512.88 3.23 512.27 3.19 512.05 3.19C511.85 3.19 511.83 3.22 511.83 3.44C511.83 3.67 511.90 3.70 512.06 3.70L512.86 3.70C512.92 3.70 512.97 4.79 512.97 5.71L512.97 7.42C512.97 7.59 512.97 7.59 512.81 7.59L507.70 7.59C507.53 7.59 507.53 7.59 507.53 7.38C507.53 6.96 507.51 6.23 507.51 5.53C507.51 4.66 507.53 3.70 507.58 3.70L508.35 3.70C508.58 3.70 508.62 3.68 508.62 3.49C508.62 3.25 508.61 3.19 508.41 3.19C508.09 3.19 507.50 3.23 506.90 3.23C506.31 3.23 505.82 3.19 505.60 3.19C505.41 3.19 505.32 3.21 505.32 3.44C505.32 3.68 505.43 3.70 505.60 3.70L506.21 3.70C506.27 3.70 506.28 5.59 506.28 7.18L506.28 8.61C506.28 10.08 506.27 12.18 506.20 12.18L505.39 12.18C505.16 12.18 505.13 12.19 505.13 12.39Z"></path></g></svg>