<svg data-v-29081953="" xmlns="http://www.w3.org/2000/svg" viewBox="0 0 300 300"><!----><defs data-v-29081953=""><!----></defs><rect data-v-29081953="" fill="transparent" x="0" y="0" width="300px" height="300px" class="logo-background-square"></rect><!----><defs data-v-29081953=""><linearGradient data-v-29081953="" gradientTransform="rotate(25)" id="55b54be2-a9b1-4175-b6a9-6ee81160d003" x1="0%" y1="0%" x2="100%" y2="0%"><stop data-v-29081953="" offset="0%" stop-color="#E98E0D" stop-opacity="1"></stop><stop data-v-29081953="" offset="100%" stop-color="#1536F1" stop-opacity="1"></stop></linearGradient></defs><g data-v-29081953="" id="d4abe438-0aff-4284-a929-b7ef659bb1b7" fill="url(#55b54be2-a9b1-4175-b6a9-6ee81160d003)" stroke="none" transform="matrix(2.444444237226339,0,0,2.444444237226339,27.77778114507199,27.77778813868306)"><path d="M50 51a.997.997 0 0 0 .707-.293l8-8a.999.999 0 1 0-1.414-1.414l-8 8A.999.999 0 0 0 50 51zM50 57a.997.997 0 0 0 .707-.293l8-8a.999.999 0 1 0-1.414-1.414l-8 8A.999.999 0 0 0 50 57zM50 63a.997.997 0 0 0 .707-.293l8-8a.999.999 0 1 0-1.414-1.414l-8 8A.999.999 0 0 0 50 63zM50 69a.997.997 0 0 0 .707-.293l8-8a.999.999 0 1 0-1.414-1.414l-8 8A.999.999 0 0 0 50 69zM50 75a.997.997 0 0 0 .707-.293l8-8a.999.999 0 1 0-1.414-1.414l-8 8A.999.999 0 0 0 50 75zM50 81a.997.997 0 0 0 .707-.293l8-8a.999.999 0 1 0-1.414-1.414l-8 8A.999.999 0 0 0 50 81zM50 87a.997.997 0 0 0 .707-.293l8-8a.999.999 0 1 0-1.414-1.414l-8 8A.999.999 0 0 0 50 87z"></path><path d="M94.93 91.35A.988.988 0 0 0 95 91V43a.997.997 0 0 0-.293-.707C94.328 41.914 85.273 33 73 33c-10.708 0-20.448 6.799-23 8.731C47.448 39.799 37.708 33 27 33c-12.273 0-21.328 8.914-21.707 9.293A.997.997 0 0 0 5 43v48c0 .123.029.238.07.35.013.033.029.063.045.095a.966.966 0 0 0 .14.207c.023.026.045.054.07.078a.997.997 0 0 0 .258.173c.012.006.021.016.032.02l.002.002c.111.045.228.063.344.068.014-.001.025.007.039.007h36.612l-.561 1.684A1 1 0 0 0 43 95h14a1 1 0 0 0 .949-1.316L57.388 92H94c.014 0 .024-.007.037-.008a.968.968 0 0 0 .346-.068l.002-.002c.012-.004.021-.014.032-.02.097-.045.182-.104.258-.173.026-.024.047-.052.07-.078a.966.966 0 0 0 .14-.207c.015-.032.032-.061.045-.094zM27 35c11.491 0 22.26 8.687 22.367 8.774a1 1 0 0 0 1.266 0C50.74 43.686 61.49 35 73 35c10.258 0 18.382 6.946 20 8.431v45.346C89.78 86.138 82.318 81 73 81c-10.708 0-20.448 6.799-23 8.731C47.448 87.799 37.708 81 27 81c-9.318 0-16.78 5.138-20 7.777v-2.363l7.707-7.707a.999.999 0 1 0-1.414-1.414L7 83.586v-3.172l7.707-7.707a.999.999 0 1 0-1.414-1.414L7 77.586v-3.172l7.707-7.707a.999.999 0 1 0-1.414-1.414L7 71.586v-3.172l7.707-7.707a.999.999 0 1 0-1.414-1.414L7 65.586v-3.172l7.707-7.707a.999.999 0 1 0-1.414-1.414L7 59.586v-3.172l7.707-7.707a.999.999 0 1 0-1.414-1.414L7 53.586v-3.172l7.707-7.707a.999.999 0 1 0-1.414-1.414L7 47.586v-4.155C8.618 41.946 16.742 35 27 35zm29 55a1 1 0 0 0-.949 1.316L55.612 93H44.388l.561-1.684A1 1 0 0 0 44 90H8.703c3.223-2.533 10.062-7 18.297-7 11.491 0 22.26 8.687 22.367 8.774a.994.994 0 0 0 1.266-.001C50.74 91.686 61.49 83 73 83c8.235 0 15.074 4.467 18.297 7H56z"></path><path d="M25 51h5v5a1 1 0 1 0 2 0v-5h5a1 1 0 1 0 0-2h-5v-5a1 1 0 1 0-2 0v5h-5a1 1 0 1 0 0 2zM24.293 27.707a.997.997 0 0 0 1.414 0L29 24.414l3.293 3.293a.997.997 0 0 0 1.414 0 .999.999 0 0 0 0-1.414L30.414 23l3.293-3.293a.999.999 0 1 0-1.414-1.414L29 21.586l-3.293-3.293a.999.999 0 1 0-1.414 1.414L27.586 23l-3.293 3.293a.999.999 0 0 0 0 1.414zM66.293 28.707a.997.997 0 0 0 1.414 0l10-10a.999.999 0 1 0-1.414-1.414l-10 10a.999.999 0 0 0 0 1.414zM25 61h12a1 1 0 1 0 0-2H25a1 1 0 1 0 0 2zM68 22c1.654 0 3-1.346 3-3s-1.346-3-3-3-3 1.346-3 3 1.346 3 3 3zm0-4a1.001 1.001 0 1 1-1 1c0-.551.448-1 1-1zM73 27c0 1.654 1.346 3 3 3s3-1.346 3-3-1.346-3-3-3-3 1.346-3 3zm4 0a1.001 1.001 0 0 1-2 0 1.001 1.001 0 0 1 2 0zM43.68 9.944a1.005 1.005 0 0 0 1.267-.622C44.979 9.227 45.776 7 48 7h10a1 1 0 1 0 0-2H48c-3.679 0-4.898 3.533-4.948 3.684a.995.995 0 0 0 .628 1.26z"></path><path d="M48.008 8.876l-.988 7.928c-.311 1.551-.856 2.604-1.58 3.044-.581.353-1.119.204-1.123.203a1 1 0 1 0-.633 1.897c.07.023.428.133.938.133.493 0 1.131-.103 1.79-.485 1.268-.736 2.132-2.216 2.58-4.473l1-8a1 1 0 1 0-1.984-.247zM54.992 9.124a1 1 0 1 0-1.984-.248l-.988 7.928c-.623 3.116.786 4.659 2.313 5.064.306.082.615.12.923.12a3.945 3.945 0 0 0 3.693-2.672 1 1 0 1 0-1.897-.632c-.333.996-1.438 1.457-2.206 1.251-.853-.227-1.168-1.225-.854-2.812l1-7.999zM79.707 50.293a.999.999 0 0 0-1.414 0L76 52.586l-2.293-2.293a.999.999 0 1 0-1.414 1.414L74.586 54l-2.293 2.293a.999.999 0 1 0 1.414 1.414L76 55.414l2.293 2.293a.997.997 0 0 0 1.414 0 .999.999 0 0 0 0-1.414L77.414 54l2.293-2.293a.999.999 0 0 0 0-1.414z"></path><path d="M67.2 58.6a.995.995 0 0 0 .998.38.995.995 0 0 0 .771-.738L71.781 47h8.601l.724 1.447a1 1 0 0 0 1.789-.895l-1-2A1.002 1.002 0 0 0 81 45H71c-.459 0-.858.313-.97.757l-2.491 9.961L65.8 53.4a.998.998 0 1 0-1.599 1.199L67.2 58.6z"></path></g><!----></svg>