<svg data-v-29081953="" xmlns="http://www.w3.org/2000/svg" viewBox="0 0 300 300"><!----><defs data-v-29081953=""><!----></defs><rect data-v-29081953="" fill="#DEE5F3" x="0" y="0" width="300px" height="300px" class="logo-background-square"></rect><defs data-v-29081953=""><!----></defs><g data-v-29081953="" id="faf67e6d-7bbb-402f-9dbc-255cf5880096" fill="#0C203C" transform="matrix(1.4464709465072467,0,0,1.4464709465072467,83.71857824143889,125.71609871350984)"><path d="M11.47 3.77L11.47 3.77L11.47 3.77Q11.58 3.98 11.60 4.14L11.60 4.14L11.60 4.14Q11.62 4.31 11.62 4.63L11.62 4.63L11.62 12.40L11.62 12.40Q11.62 13.37 11.09 13.54L11.09 13.54L11.09 13.54Q10.82 13.62 10.42 13.62L10.42 13.62L10.42 13.62Q10.01 13.62 9.77 13.55L9.77 13.55L9.77 13.55Q9.53 13.48 9.41 13.38L9.41 13.38L9.41 13.38Q9.28 13.29 9.21 13.10L9.21 13.10L9.21 13.10Q9.14 12.87 9.14 12.38L9.14 12.38L9.14 7.69L9.14 7.69Q8.79 8.12 8.12 9.07L8.12 9.07L8.12 9.07Q7.45 10.01 7.27 10.25L7.27 10.25L7.27 10.25Q7.08 10.49 7.01 10.58L7.01 10.58L7.01 10.58Q6.94 10.67 6.67 10.83L6.67 10.83L6.67 10.83Q6.40 10.99 6.08 10.99L6.08 10.99L6.08 10.99Q5.77 10.99 5.51 10.84L5.51 10.84L5.51 10.84Q5.25 10.70 5.14 10.56L5.14 10.56L5.03 10.40L5.03 10.40Q4.75 10.05 3.92 8.91L3.92 8.91L3.92 8.91Q3.09 7.77 3.02 7.69L3.02 7.69L3.02 12.40L3.02 12.40Q3.02 12.73 3.00 12.89L3.00 12.89L3.00 12.89Q2.98 13.05 2.87 13.24L2.87 13.24L2.87 13.24Q2.66 13.62 1.78 13.62L1.78 13.62L1.78 13.62Q0.92 13.62 0.71 13.24L0.71 13.24L0.71 13.24Q0.60 13.05 0.58 12.88L0.58 12.88L0.58 12.88Q0.56 12.71 0.56 12.38L0.56 12.38L0.56 4.61L0.56 4.61Q0.56 4.28 0.58 4.12L0.58 4.12L0.58 4.12Q0.60 3.96 0.71 3.75L0.71 3.75L0.71 3.75Q0.92 3.39 1.81 3.39L1.81 3.39L1.81 3.39Q2.18 3.39 2.46 3.48L2.46 3.48L2.46 3.48Q2.73 3.57 2.81 3.67L2.81 3.67L2.90 3.75L6.08 7.92L6.08 7.92Q8.46 4.77 9.25 3.77L9.25 3.77L9.25 3.77Q9.49 3.39 10.38 3.39L10.38 3.39L10.38 3.39Q11.27 3.39 11.47 3.77ZM17.53 7.04L17.53 7.04L17.53 7.04Q17.61 6.26 18.63 6.26L18.63 6.26L18.63 6.26Q19.18 6.26 19.45 6.34L19.45 6.34L19.45 6.34Q19.71 6.43 19.82 6.64L19.82 6.64L19.82 6.64Q19.92 6.85 19.94 7.01L19.94 7.01L19.94 7.01Q19.96 7.17 19.96 7.49L19.96 7.49L19.96 12.39L19.96 12.39Q19.96 12.71 19.94 12.87L19.94 12.87L19.94 12.87Q19.92 13.03 19.82 13.24L19.82 13.24L19.82 13.24Q19.63 13.61 18.87 13.61L18.87 13.61L18.87 13.61Q18.10 13.61 17.84 13.42L17.84 13.42L17.84 13.42Q17.58 13.23 17.54 12.87L17.54 12.87L17.54 12.87Q17.02 13.61 15.81 13.61L15.81 13.61L15.81 13.61Q14.60 13.61 13.57 12.50L13.57 12.50L13.57 12.50Q12.53 11.40 12.53 9.93L12.53 9.93L12.53 9.93Q12.53 8.47 13.57 7.37L13.57 7.37L13.57 7.37Q14.62 6.27 15.86 6.27L15.86 6.27L15.86 6.27Q16.34 6.27 16.73 6.44L16.73 6.44L16.73 6.44Q17.12 6.61 17.28 6.76L17.28 6.76L17.28 6.76Q17.43 6.90 17.53 7.04ZM14.98 9.95L14.98 9.95L14.98 9.95Q14.98 10.42 15.34 10.79L15.34 10.79L15.34 10.79Q15.71 11.16 16.23 11.16L16.23 11.16L16.23 11.16Q16.74 11.16 17.09 10.78L17.09 10.78L17.09 10.78Q17.43 10.40 17.43 9.95L17.43 9.95L17.43 9.95Q17.43 9.49 17.10 9.10L17.10 9.10L17.10 9.10Q16.77 8.71 16.22 8.71L16.22 8.71L16.22 8.71Q15.67 8.71 15.32 9.10L15.32 9.10L15.32 9.10Q14.98 9.49 14.98 9.95ZM26.10 6.34L26.10 6.34L26.10 6.34Q26.36 6.43 26.54 6.63L26.54 6.63L26.54 6.63Q26.71 6.83 26.71 7.28L26.71 7.28L26.71 7.28Q26.71 7.73 26.45 8.26L26.45 8.26L26.45 8.26Q26.18 8.79 25.68 8.79L25.68 8.79L25.68 8.79Q25.42 8.79 25.19 8.68L25.19 8.68L25.19 8.68Q24.96 8.57 24.58 8.57L24.58 8.57L24.58 8.57Q24.21 8.57 23.88 8.83L23.88 8.83L23.88 8.83Q23.55 9.10 23.55 9.48L23.55 9.48L23.55 12.42L23.55 12.42Q23.55 12.74 23.53 12.90L23.53 12.90L23.53 12.90Q23.51 13.06 23.39 13.27L23.39 13.27L23.39 13.27Q23.18 13.64 22.30 13.64L22.30 13.64L22.30 13.64Q21.63 13.64 21.34 13.40L21.34 13.40L21.34 13.40Q21.11 13.20 21.08 12.80L21.08 12.80L21.08 12.80Q21.08 12.66 21.08 12.39L21.08 12.39L21.08 7.48L21.08 7.48Q21.08 7.15 21.11 6.99L21.11 6.99L21.11 6.99Q21.13 6.83 21.22 6.64L21.22 6.64L21.22 6.64Q21.42 6.26 22.32 6.26L22.32 6.26L22.32 6.26Q23.16 6.26 23.37 6.58L23.37 6.58L23.37 6.58Q23.52 6.80 23.52 7.04L23.52 7.04L23.52 7.04Q23.59 6.94 23.72 6.80L23.72 6.80L23.72 6.80Q23.86 6.66 24.29 6.43L24.29 6.43L24.29 6.43Q24.72 6.19 25.05 6.19L25.05 6.19L25.05 6.19Q25.38 6.19 25.61 6.22L25.61 6.22L25.61 6.22Q25.83 6.26 26.10 6.34ZM34.34 6.34L34.34 6.34L34.34 6.34Q35.17 6.71 35.17 7.22L35.17 7.22L35.17 7.22Q35.17 7.48 35.06 7.70L35.06 7.70L35.06 7.70Q34.94 7.92 34.94 7.94L34.94 7.94L31.28 16.14L31.28 16.14Q31.16 16.41 31.09 16.55L31.09 16.55L31.09 16.55Q31.01 16.69 30.84 16.81L30.84 16.81L30.84 16.81Q30.67 16.94 30.42 16.94L30.42 16.94L30.42 16.94Q30.17 16.94 29.68 16.73L29.68 16.73L29.68 16.73Q28.85 16.37 28.85 15.86L28.85 15.86L28.85 15.86Q28.85 15.53 30.20 12.66L30.20 12.66L27.41 7.97L27.41 7.97Q27.13 7.50 27.13 7.28L27.13 7.28L27.13 7.28Q27.13 6.83 27.89 6.38L27.89 6.38L27.89 6.38Q28.36 6.10 28.63 6.10L28.63 6.10L28.63 6.10Q28.90 6.10 29.06 6.22L29.06 6.22L29.06 6.22Q29.23 6.33 29.31 6.45L29.31 6.45L29.31 6.45Q29.39 6.57 30.08 7.75L30.08 7.75L30.08 7.75Q30.77 8.93 31.40 9.95L31.40 9.95L31.40 9.95Q31.47 9.73 32.16 8.23L32.16 8.23L32.16 8.23Q32.84 6.72 32.89 6.62L32.89 6.62L32.89 6.62Q32.94 6.52 33.05 6.38L33.05 6.38L33.05 6.38Q33.24 6.15 33.56 6.15L33.56 6.15L33.56 6.15Q33.89 6.15 34.34 6.34ZM40.15 3.36L40.15 3.36L47.94 3.36L47.94 3.36Q48.38 3.36 48.59 3.47L48.59 3.47L48.59 3.47Q48.80 3.57 48.87 3.79L48.87 3.79L48.87 3.79Q48.94 4.02 48.94 4.38L48.94 4.38L48.94 4.38Q48.94 4.75 48.87 4.96L48.87 4.96L48.87 4.96Q48.80 5.18 48.64 5.26L48.64 5.26L48.64 5.26Q48.38 5.39 47.92 5.39L47.92 5.39L45.25 5.39L45.25 12.43L45.25 12.43Q45.25 12.75 45.23 12.91L45.23 12.91L45.23 12.91Q45.21 13.06 45.10 13.27L45.10 13.27L45.10 13.27Q45.00 13.47 44.73 13.55L44.73 13.55L44.73 13.55Q44.46 13.64 44.03 13.64L44.03 13.64L44.03 13.64Q43.60 13.64 43.34 13.55L43.34 13.55L43.34 13.55Q43.08 13.47 42.97 13.27L42.97 13.27L42.97 13.27Q42.87 13.06 42.85 12.90L42.85 12.90L42.85 12.90Q42.83 12.74 42.83 12.42L42.83 12.42L42.83 5.39L40.14 5.39L40.14 5.39Q39.69 5.39 39.48 5.29L39.48 5.29L39.48 5.29Q39.27 5.18 39.20 4.96L39.20 4.96L39.20 4.96Q39.13 4.73 39.13 4.37L39.13 4.37L39.13 4.37Q39.13 4.00 39.20 3.79L39.20 3.79L39.20 3.79Q39.27 3.57 39.44 3.49L39.44 3.49L39.44 3.49Q39.69 3.36 40.15 3.36ZM51.31 13.61L51.31 13.61L51.31 13.61Q49.90 13.61 48.97 12.54L48.97 12.54L48.97 12.54Q48.03 11.47 48.03 9.93L48.03 9.93L48.03 7.48L48.03 7.48Q48.03 7.14 48.06 6.99L48.06 6.99L48.06 6.99Q48.08 6.83 48.17 6.62L48.17 6.62L48.17 6.62Q48.37 6.24 49.27 6.24L49.27 6.24L49.27 6.24Q50.25 6.24 50.41 6.78L50.41 6.78L50.41 6.78Q50.50 7.00 50.50 7.49L50.50 7.49L50.50 9.94L50.50 9.94Q50.50 10.51 50.83 10.84L50.83 10.84L50.83 10.84Q51.16 11.16 51.71 11.16L51.71 11.16L51.71 11.16Q52.26 11.16 52.61 10.82L52.61 10.82L52.61 10.82Q52.95 10.49 52.95 9.94L52.95 9.94L52.95 7.46L52.95 7.46Q52.95 7.14 52.97 6.98L52.97 6.98L52.97 6.98Q52.99 6.82 53.10 6.61L53.10 6.61L53.10 6.61Q53.28 6.24 54.18 6.24L54.18 6.24L54.18 6.24Q55.06 6.24 55.26 6.62L55.26 6.62L55.26 6.62Q55.36 6.83 55.38 6.99L55.38 6.99L55.38 6.99Q55.40 7.15 55.40 7.48L55.40 7.48L55.40 12.43L55.40 12.43Q55.40 12.74 55.38 12.90L55.38 12.90L55.38 12.90Q55.36 13.06 55.24 13.26L55.24 13.26L55.24 13.26Q55.03 13.62 54.17 13.62L54.17 13.62L54.17 13.62Q53.31 13.62 53.12 13.29L53.12 13.29L53.12 13.29Q52.98 13.05 52.98 12.71L52.98 12.71L52.98 12.71Q52.92 12.81 52.72 12.99L52.72 12.99L52.72 12.99Q52.53 13.17 52.35 13.30L52.35 13.30L52.35 13.30Q51.87 13.61 51.31 13.61ZM60.80 8.74L60.80 8.74L59.89 8.68L59.89 10.61L59.89 10.61Q59.89 10.99 60.01 11.16L60.01 11.16L60.01 11.16Q60.13 11.33 60.46 11.33L60.46 11.33L60.46 11.33Q60.79 11.33 60.96 11.35L60.96 11.35L60.96 11.35Q61.14 11.37 61.33 11.48L61.33 11.48L61.33 11.48Q61.66 11.66 61.66 12.42L61.66 12.42L61.66 12.42Q61.66 13.30 61.26 13.50L61.26 13.50L61.26 13.50Q61.05 13.59 60.89 13.62L60.89 13.62L60.89 13.62Q60.73 13.64 60.42 13.64L60.42 13.64L60.42 13.64Q58.97 13.64 58.21 12.98L58.21 12.98L58.21 12.98Q57.46 12.32 57.46 10.75L57.46 10.75L57.46 8.68L57.46 8.68Q57.19 8.72 56.88 8.72L56.88 8.72L56.88 8.72Q56.57 8.72 56.37 8.48L56.37 8.48L56.37 8.48Q56.17 8.25 56.17 7.67L56.17 7.67L56.17 7.67Q56.17 7.10 56.24 6.84L56.24 6.84L56.24 6.84Q56.31 6.58 56.43 6.47L56.43 6.47L56.43 6.47Q56.66 6.29 56.99 6.29L56.99 6.29L57.46 6.34L57.46 4.90L57.46 4.90Q57.46 4.58 57.48 4.42L57.48 4.42L57.48 4.42Q57.50 4.27 57.61 4.09L57.61 4.09L57.61 4.09Q57.79 3.74 58.69 3.74L58.69 3.74L58.69 3.74Q59.64 3.74 59.82 4.26L59.82 4.26L59.82 4.26Q59.89 4.48 59.89 4.97L59.89 4.97L59.89 6.34L59.89 6.34Q60.51 6.29 60.82 6.29L60.82 6.29L60.82 6.29Q61.14 6.29 61.30 6.31L61.30 6.31L61.30 6.31Q61.46 6.33 61.67 6.44L61.67 6.44L61.67 6.44Q62.03 6.62 62.03 7.52L62.03 7.52L62.03 7.52Q62.03 8.40 61.66 8.60L61.66 8.60L61.66 8.60Q61.45 8.69 61.29 8.71L61.29 8.71L61.29 8.71Q61.12 8.74 60.80 8.74ZM62.59 9.95L62.59 9.95Q62.59 8.27 63.77 7.18L63.77 7.18L63.77 7.18Q64.95 6.09 66.46 6.09L66.46 6.09L66.46 6.09Q67.97 6.09 69.13 7.18L69.13 7.18L69.13 7.18Q70.29 8.26 70.29 9.94L70.29 9.94L70.29 9.94Q70.29 11.10 69.69 12.01L69.69 12.01L69.69 12.01Q69.09 12.91 68.23 13.34L68.23 13.34L68.23 13.34Q67.37 13.76 66.44 13.76L66.44 13.76L66.44 13.76Q65.52 13.76 64.65 13.31L64.65 13.31L64.65 13.31Q63.78 12.85 63.19 11.96L63.19 11.96L63.19 11.96Q62.59 11.07 62.59 9.95L62.59 9.95ZM65.52 10.96L65.52 10.96L65.52 10.96Q65.97 11.30 66.43 11.30L66.43 11.30L66.43 11.30Q66.89 11.30 67.35 10.95L67.35 10.95L67.35 10.95Q67.82 10.60 67.82 9.91L67.82 9.91L67.82 9.91Q67.82 9.23 67.38 8.89L67.38 8.89L67.38 8.89Q66.95 8.55 66.44 8.55L66.44 8.55L66.44 8.55Q65.94 8.55 65.51 8.90L65.51 8.90L65.51 8.90Q65.07 9.25 65.07 9.93L65.07 9.93L65.07 9.93Q65.07 10.61 65.52 10.96ZM76.22 6.34L76.22 6.34L76.22 6.34Q76.48 6.43 76.66 6.63L76.66 6.63L76.66 6.63Q76.83 6.83 76.83 7.28L76.83 7.28L76.83 7.28Q76.83 7.73 76.57 8.26L76.57 8.26L76.57 8.26Q76.30 8.79 75.80 8.79L75.80 8.79L75.80 8.79Q75.54 8.79 75.31 8.68L75.31 8.68L75.31 8.68Q75.08 8.57 74.70 8.57L74.70 8.57L74.70 8.57Q74.33 8.57 74.00 8.83L74.00 8.83L74.00 8.83Q73.67 9.10 73.67 9.48L73.67 9.48L73.67 12.42L73.67 12.42Q73.67 12.74 73.65 12.90L73.65 12.90L73.65 12.90Q73.63 13.06 73.51 13.27L73.51 13.27L73.51 13.27Q73.30 13.64 72.42 13.64L72.42 13.64L72.42 13.64Q71.75 13.64 71.46 13.40L71.46 13.40L71.46 13.40Q71.23 13.20 71.20 12.80L71.20 12.80L71.20 12.80Q71.20 12.66 71.20 12.39L71.20 12.39L71.20 7.48L71.20 7.48Q71.20 7.15 71.23 6.99L71.23 6.99L71.23 6.99Q71.25 6.83 71.34 6.64L71.34 6.64L71.34 6.64Q71.54 6.26 72.44 6.26L72.44 6.26L72.44 6.26Q73.28 6.26 73.49 6.58L73.49 6.58L73.49 6.58Q73.64 6.80 73.64 7.04L73.64 7.04L73.64 7.04Q73.71 6.94 73.84 6.80L73.84 6.80L73.84 6.80Q73.98 6.66 74.41 6.43L74.41 6.43L74.41 6.43Q74.84 6.19 75.17 6.19L75.17 6.19L75.17 6.19Q75.50 6.19 75.73 6.22L75.73 6.22L75.73 6.22Q75.95 6.26 76.22 6.34ZM77.38 12.98L77.38 12.98L77.38 12.98Q77.11 12.81 77.11 12.45L77.11 12.45L77.11 12.45Q77.11 12.08 77.64 11.34L77.64 11.34L77.64 11.34Q77.80 11.10 78.14 11.10L78.14 11.10L78.14 11.10Q78.48 11.10 79.07 11.45L79.07 11.45L79.07 11.45Q79.66 11.79 80.14 11.79L80.14 11.79L80.14 11.79Q80.99 11.79 80.99 11.45L80.99 11.45L80.99 11.45Q80.99 11.19 80.05 11.06L80.05 11.06L80.05 11.06Q79.17 10.93 78.30 10.40L78.30 10.40L78.30 10.40Q77.90 10.15 77.63 9.61L77.63 9.61L77.63 9.61Q77.36 9.07 77.36 8.33L77.36 8.33L77.36 8.33Q77.36 6.12 80.40 6.12L80.40 6.12L80.40 6.12Q81.40 6.12 82.45 6.59L82.45 6.59L82.45 6.59Q82.94 6.82 82.94 7.15L82.94 7.15L82.94 7.15Q82.94 7.49 82.63 7.98L82.63 7.98L82.63 7.98Q82.32 8.47 82.00 8.47L82.00 8.47L82.00 8.47Q81.83 8.47 81.38 8.26L81.38 8.26L81.38 8.26Q80.92 8.05 80.39 8.05L80.39 8.05L80.39 8.05Q79.56 8.05 79.56 8.36L79.56 8.36L79.56 8.36Q79.56 8.78 80.51 8.90L80.51 8.90L80.51 8.90Q81.44 9.00 82.31 9.44L82.31 9.44L82.31 9.44Q82.71 9.63 82.98 10.12L82.98 10.12L82.98 10.12Q83.26 10.60 83.26 11.33L83.26 11.33L83.26 11.33Q83.26 12.05 82.98 12.57L82.98 12.57L82.98 12.57Q82.71 13.08 82.22 13.33L82.22 13.33L82.22 13.33Q81.33 13.76 79.97 13.76L79.97 13.76L79.97 13.76Q78.62 13.76 77.38 12.98ZM98.62 3.77L98.62 3.77L98.62 3.77Q98.73 3.98 98.75 4.14L98.75 4.14L98.75 4.14Q98.77 4.31 98.77 4.63L98.77 4.63L98.77 12.40L98.77 12.40Q98.77 13.37 98.24 13.54L98.24 13.54L98.24 13.54Q97.97 13.62 97.57 13.62L97.57 13.62L97.57 13.62Q97.16 13.62 96.92 13.55L96.92 13.55L96.92 13.55Q96.68 13.48 96.56 13.38L96.56 13.38L96.56 13.38Q96.43 13.29 96.36 13.10L96.36 13.10L96.36 13.10Q96.29 12.87 96.29 12.38L96.29 12.38L96.29 7.69L96.29 7.69Q95.94 8.12 95.27 9.07L95.27 9.07L95.27 9.07Q94.60 10.01 94.42 10.25L94.42 10.25L94.42 10.25Q94.23 10.49 94.16 10.58L94.16 10.58L94.16 10.58Q94.09 10.67 93.82 10.83L93.82 10.83L93.82 10.83Q93.55 10.99 93.23 10.99L93.23 10.99L93.23 10.99Q92.92 10.99 92.66 10.84L92.66 10.84L92.66 10.84Q92.40 10.70 92.29 10.56L92.29 10.56L92.18 10.40L92.18 10.40Q91.90 10.05 91.07 8.91L91.07 8.91L91.07 8.91Q90.24 7.77 90.17 7.69L90.17 7.69L90.17 12.40L90.17 12.40Q90.17 12.73 90.15 12.89L90.15 12.89L90.15 12.89Q90.13 13.05 90.02 13.24L90.02 13.24L90.02 13.24Q89.81 13.62 88.93 13.62L88.93 13.62L88.93 13.62Q88.07 13.62 87.86 13.24L87.86 13.24L87.86 13.24Q87.75 13.05 87.73 12.88L87.73 12.88L87.73 12.88Q87.71 12.71 87.71 12.38L87.71 12.38L87.71 4.61L87.71 4.61Q87.71 4.28 87.73 4.12L87.73 4.12L87.73 4.12Q87.75 3.96 87.86 3.75L87.86 3.75L87.86 3.75Q88.07 3.39 88.96 3.39L88.96 3.39L88.96 3.39Q89.33 3.39 89.61 3.48L89.61 3.48L89.61 3.48Q89.88 3.57 89.96 3.67L89.96 3.67L90.05 3.75L93.23 7.92L93.23 7.92Q95.61 4.77 96.40 3.77L96.40 3.77L96.40 3.77Q96.64 3.39 97.53 3.39L97.53 3.39L97.53 3.39Q98.42 3.39 98.62 3.77ZM104.68 7.04L104.68 7.04L104.68 7.04Q104.76 6.26 105.78 6.26L105.78 6.26L105.78 6.26Q106.33 6.26 106.60 6.34L106.60 6.34L106.60 6.34Q106.86 6.43 106.97 6.64L106.97 6.64L106.97 6.64Q107.07 6.85 107.09 7.01L107.09 7.01L107.09 7.01Q107.11 7.17 107.11 7.49L107.11 7.49L107.11 12.39L107.11 12.39Q107.11 12.71 107.09 12.87L107.09 12.87L107.09 12.87Q107.07 13.03 106.97 13.24L106.97 13.24L106.97 13.24Q106.78 13.61 106.02 13.61L106.02 13.61L106.02 13.61Q105.25 13.61 104.99 13.42L104.99 13.42L104.99 13.42Q104.73 13.23 104.69 12.87L104.69 12.87L104.69 12.87Q104.17 13.61 102.96 13.61L102.96 13.61L102.96 13.61Q101.75 13.61 100.72 12.50L100.72 12.50L100.72 12.50Q99.68 11.40 99.68 9.93L99.68 9.93L99.68 9.93Q99.68 8.47 100.72 7.37L100.72 7.37L100.72 7.37Q101.77 6.27 103.01 6.27L103.01 6.27L103.01 6.27Q103.49 6.27 103.88 6.44L103.88 6.44L103.88 6.44Q104.27 6.61 104.43 6.76L104.43 6.76L104.43 6.76Q104.58 6.90 104.68 7.04ZM102.13 9.95L102.13 9.95L102.13 9.95Q102.13 10.42 102.49 10.79L102.49 10.79L102.49 10.79Q102.86 11.16 103.38 11.16L103.38 11.16L103.38 11.16Q103.89 11.16 104.24 10.78L104.24 10.78L104.24 10.78Q104.58 10.40 104.58 9.95L104.58 9.95L104.58 9.95Q104.58 9.49 104.25 9.10L104.25 9.10L104.25 9.10Q103.92 8.71 103.37 8.71L103.37 8.71L103.37 8.71Q102.82 8.71 102.47 9.10L102.47 9.10L102.47 9.10Q102.13 9.49 102.13 9.95ZM112.52 8.74L112.52 8.74L111.61 8.68L111.61 10.61L111.61 10.61Q111.61 10.99 111.73 11.16L111.73 11.16L111.73 11.16Q111.85 11.33 112.18 11.33L112.18 11.33L112.18 11.33Q112.50 11.33 112.68 11.35L112.68 11.35L112.68 11.35Q112.85 11.37 113.05 11.48L113.05 11.48L113.05 11.48Q113.37 11.66 113.37 12.42L113.37 12.42L113.37 12.42Q113.37 13.30 112.98 13.50L112.98 13.50L112.98 13.50Q112.77 13.59 112.61 13.62L112.61 13.62L112.61 13.62Q112.45 13.64 112.14 13.64L112.14 13.64L112.14 13.64Q110.68 13.64 109.93 12.98L109.93 12.98L109.93 12.98Q109.17 12.32 109.17 10.75L109.17 10.75L109.17 8.68L109.17 8.68Q108.91 8.72 108.60 8.72L108.60 8.72L108.60 8.72Q108.29 8.72 108.09 8.48L108.09 8.48L108.09 8.48Q107.88 8.25 107.88 7.67L107.88 7.67L107.88 7.67Q107.88 7.10 107.95 6.84L107.95 6.84L107.95 6.84Q108.02 6.58 108.15 6.47L108.15 6.47L108.15 6.47Q108.37 6.29 108.71 6.29L108.71 6.29L109.17 6.34L109.17 4.90L109.17 4.90Q109.17 4.58 109.19 4.42L109.19 4.42L109.19 4.42Q109.21 4.27 109.33 4.09L109.33 4.09L109.33 4.09Q109.51 3.74 110.40 3.74L110.40 3.74L110.40 3.74Q111.36 3.74 111.54 4.26L111.54 4.26L111.54 4.26Q111.61 4.48 111.61 4.97L111.61 4.97L111.61 6.34L111.61 6.34Q112.22 6.29 112.54 6.29L112.54 6.29L112.54 6.29Q112.85 6.29 113.02 6.31L113.02 6.31L113.02 6.31Q113.18 6.33 113.39 6.44L113.39 6.44L113.39 6.44Q113.75 6.62 113.75 7.52L113.75 7.52L113.75 7.52Q113.75 8.40 113.37 8.60L113.37 8.60L113.37 8.60Q113.16 8.69 113.00 8.71L113.00 8.71L113.00 8.71Q112.84 8.74 112.52 8.74ZM118.61 6.29L118.61 6.29L118.61 6.29Q120.01 6.29 120.94 7.35L120.94 7.35L120.94 7.35Q121.87 8.41 121.87 9.95L121.87 9.95L121.87 12.42L121.87 12.42Q121.87 12.74 121.85 12.90L121.85 12.90L121.85 12.90Q121.83 13.06 121.72 13.27L121.72 13.27L121.72 13.27Q121.53 13.64 120.64 13.64L120.64 13.64L120.64 13.64Q119.78 13.64 119.57 13.27L119.57 13.27L119.57 13.27Q119.46 13.06 119.44 12.89L119.44 12.89L119.44 12.89Q119.42 12.73 119.42 12.39L119.42 12.39L119.42 9.94L119.42 9.94Q119.42 9.37 119.10 9.04L119.10 9.04L119.10 9.04Q118.78 8.72 118.28 8.72L118.28 8.72L118.28 8.72Q117.78 8.72 117.40 9.02L117.40 9.02L117.40 9.02Q117.03 9.32 116.97 9.70L116.97 9.70L116.97 12.42L116.97 12.42Q116.97 12.74 116.95 12.90L116.95 12.90L116.95 12.90Q116.93 13.06 116.82 13.27L116.82 13.27L116.82 13.27Q116.63 13.64 115.74 13.64L115.74 13.64L115.74 13.64Q114.86 13.64 114.66 13.26L114.66 13.26L114.66 13.26Q114.56 13.05 114.54 12.89L114.54 12.89L114.54 12.89Q114.52 12.74 114.52 12.40L114.52 12.40L114.52 4.03L114.52 4.03Q114.52 3.71 114.54 3.55L114.54 3.55L114.54 3.55Q114.56 3.39 114.66 3.19L114.66 3.19L114.66 3.19Q114.86 2.81 115.75 2.81L115.75 2.81L115.75 2.81Q116.63 2.81 116.82 3.19L116.82 3.19L116.82 3.19Q116.93 3.40 116.95 3.56L116.95 3.56L116.95 3.56Q116.97 3.72 116.97 4.05L116.97 4.05L116.97 7.14L116.97 7.14Q117.67 6.29 118.61 6.29Z"></path></g><defs data-v-29081953=""><linearGradient data-v-29081953="" gradientTransform="rotate(25)" id="e92f36e0-fb09-4a05-b4cb-b0ad9efec03c" x1="0%" y1="0%" x2="100%" y2="0%"><stop data-v-29081953="" offset="0%" stop-color="#288B58" stop-opacity="1"></stop><stop data-v-29081953="" offset="100%" stop-color="#1522F1" stop-opacity="1"></stop></linearGradient></defs><g data-v-29081953="" id="7551f5d9-c439-4fe7-86b9-6fb921c10af3" stroke="none" fill="url(#e92f36e0-fb09-4a05-b4cb-b0ad9efec03c)" transform="matrix(0.5323956660861852,0,0,0.5323956660861852,29.14445269345121,123.38014967505713)"><path d="M24.89 14c-2.46 0-4.5 1.98-4.5 4.44v48.72c0 2.46 2.04 4.5 4.5 4.5h14.4l-14.1 12.96c-.54.48-.18 1.38.539 1.38H78.77a.82.82 0 0 0 .84-.84l-.06-11.04V36.5c0-.48-.359-.84-.779-.84-.24 0-.42.06-.601.18L63.29 49.58V18.44c0-2.46-2.04-4.44-4.5-4.44h-33.9zm0 1.62h33.9c1.62 0 2.88 1.26 2.88 2.82v32.64l-3.12 2.82v-4.92c0-1.08-.899-1.98-1.979-1.98h-3.42c-1.08 0-1.98.9-1.98 1.98v11.7l-10.14 9.36H24.89c-1.62 0-2.88-1.26-2.88-2.88V18.44c0-1.56 1.26-2.82 2.88-2.82zm2.4 3.72c-1.2 0-2.16.96-2.16 2.16v4.92c0 1.2.96 2.16 2.16 2.16h29.101a2.15 2.15 0 0 0 2.159-2.16V21.5c0-1.2-.96-2.16-2.159-2.16H27.29zm0 1.62h29.101c.359 0 .6.24.6.54v4.92c0 .3-.24.54-.6.54H27.29c-.36 0-.6-.24-.6-.54V21.5c0-.3.24-.54.6-.54zm-.24 14.28c-1.08 0-1.92.9-1.92 1.92v3.48c0 1.08.84 1.92 1.92 1.92h3.48c1.08 0 1.92-.84 1.92-1.92v-3.48c0-1.02-.84-1.92-1.92-1.92h-3.48zm13.02 0c-1.021 0-1.92.9-1.92 1.92v3.48c0 1.08.899 1.92 1.92 1.92h3.54c1.02 0 1.92-.84 1.92-1.92v-3.48c0-1.02-.9-1.92-1.92-1.92h-3.54zm13.08 0c-1.08 0-1.98.9-1.98 1.92v3.48c0 1.08.9 1.92 1.98 1.92h3.479c1.021 0 1.92-.84 1.92-1.92v-3.48c0-1.02-.899-1.92-1.92-1.92H53.15zm-26.1 1.62h3.48c.239 0 .359.12.359.3v3.48c0 .18-.12.36-.359.36h-3.48c-.24 0-.359-.18-.359-.36v-3.48c-.001-.18.119-.3.359-.3zm13.02 0h3.54c.18 0 .3.12.3.3v3.48c0 .18-.12.36-.3.36h-3.54c-.181 0-.301-.18-.301-.36v-3.48c.001-.18.121-.3.301-.3zm13.08 0h3.479c.181 0 .36.12.36.3v3.48c0 .18-.18.36-.36.36H53.15c-.24 0-.36-.18-.36-.36v-3.48c0-.18.12-.3.36-.3zm24.781 1.44v35.82l.06 10.26h-3.78v-1.86c0-.479-.359-.84-.779-.84-.48 0-.841.36-.841.84v1.86h-.72v-3.3c.061-.48-.36-.84-.78-.84s-.779.359-.779.84v3.3h-.722v-1.86a.82.82 0 0 0-.84-.84c-.42 0-.779.36-.779.84v1.86H64.01v-1.86a.82.82 0 0 0-.84-.84c-.42 0-.779.36-.779.84v1.86h-.721v-3.3c0-.48-.359-.84-.779-.84-.48 0-.841.359-.78.84v3.3h-.72v-1.86c0-.479-.36-.84-.841-.84-.42 0-.779.36-.779.84v1.86h-3.96v-1.86a.82.82 0 0 0-.84-.84c-.421 0-.78.36-.78.84v1.86h-.72v-3.3c0-.48-.36-.84-.78-.84a.82.82 0 0 0-.841.84v3.3h-.66v-1.86c0-.479-.421-.84-.841-.84s-.779.36-.779.84v1.86h-3.96v-1.86c0-.479-.36-.84-.841-.84-.42 0-.779.36-.779.84v1.86h-.72v-3.3a.82.82 0 0 0-.84-.84c-.42 0-.779.359-.779.84v3.3h-.721v-1.86c0-.479-.359-.84-.779-.84-.48 0-.78.36-.78.84v1.86H27.77l50.161-46.14v.06zM27.05 47c-1.08 0-1.92.9-1.92 1.92v3.48c0 1.08.84 1.92 1.92 1.92h3.48c1.08 0 1.92-.84 1.92-1.92v-3.48c0-1.02-.84-1.92-1.92-1.92h-3.48zm13.02 0c-1.021 0-1.92.9-1.92 1.92v3.48c0 1.08.899 1.92 1.92 1.92h3.54c1.02 0 1.92-.84 1.92-1.92v-3.48c0-1.02-.9-1.92-1.92-1.92h-3.54zm-13.02 1.62h3.48c.239 0 .359.12.359.3v3.48c0 .18-.12.359-.359.359h-3.48c-.24 0-.359-.18-.359-.359v-3.48c-.001-.18.119-.3.359-.3zm13.02 0h3.54c.18 0 .3.12.3.3v3.48c0 .18-.12.359-.3.359h-3.54c-.181 0-.301-.18-.301-.359v-3.48c.001-.18.121-.3.301-.3zm13.08 0h3.42c.24 0 .42.18.42.36v6.42l-4.2 3.84V48.98c0-.18.12-.36.36-.36zm17.88 4.08c-.24 0-.48.12-.66.359l.061-.119-23.821 21.9c-.54.54-.24 1.38.54 1.44l23.94-.06c.42 0 .78-.359.78-.779V53.48c0-.48-.36-.84-.84-.78zm-.78 2.58v15.18l.061 4.2H49.19l3.24-3h6.359c2.46 0 4.5-2.04 4.5-4.5V61.7l6.961-6.42zm-43.2 3.48c-1.08 0-1.92.9-1.92 1.92v3.48c0 1.08.84 1.92 1.92 1.92h3.48c1.08 0 1.92-.84 1.92-1.92v-3.48c0-1.02-.84-1.92-1.92-1.92h-3.48zm13.02 0c-1.021 0-1.92.9-1.92 1.92v3.48c0 1.08.899 1.92 1.92 1.92h3.54c1.02 0 1.92-.84 1.92-1.92v-3.48c0-1.02-.9-1.92-1.92-1.92h-3.54zm-13.02 1.62h3.48c.239 0 .359.12.359.3v3.48c0 .18-.12.359-.359.359h-3.48c-.24 0-.359-.18-.359-.359v-3.48c-.001-.18.119-.3.359-.3zm13.02 0h3.54c.18 0 .3.12.3.3v3.48c0 .18-.12.359-.3.359h-3.54c-.181 0-.301-.18-.301-.359v-3.48c.001-.18.121-.3.301-.3zm21.6 2.82v3.96c0 1.62-1.26 2.88-2.88 2.88h-4.62l7.5-6.84z"></path></g><defs data-v-29081953=""><!----></defs><g data-v-29081953="" id="4b17eb6d-a848-496f-886e-544d77a27926" fill="#0C203C" transform="matrix(0.33819293877176826,0,0,0.33819293877176826,84.29186692182294,158.93756678452857)"><path d="M1.89 3.92L0.70 3.92L0.70 4.19C0.70 4.34 0.80 4.42 0.98 4.44L1.12 4.44C1.19 4.44 1.29 4.45 1.43 4.45C1.57 4.45 1.72 4.47 1.89 4.47L1.89 13.26C1.72 13.26 1.57 13.27 1.43 13.27C1.29 13.27 1.19 13.29 1.12 13.29L0.98 13.29C0.80 13.30 0.71 13.38 0.71 13.54L0.71 13.82L1.89 13.82L7.83 13.82L7.83 13.22L7.83 11.76L7.48 11.76C7.28 11.76 7.20 11.89 7.18 12.11C7.18 12.14 7.17 12.19 7.17 12.29C7.17 12.39 7.17 12.53 7.15 12.74C7.14 12.95 7.13 13.09 7.13 13.22L2.60 13.22L2.60 9.09L6.55 9.09L6.55 8.51L2.60 8.51L2.60 4.51L7.13 4.51C7.15 5.12 7.18 5.50 7.18 5.63C7.20 5.85 7.28 5.96 7.48 5.96L7.83 5.96L7.83 4.51L7.83 3.92ZM28.28 4.44C28.46 4.42 28.56 4.34 28.56 4.19L28.56 3.92L27.38 3.92L26.88 3.92C26.81 3.92 26.77 3.92 26.73 3.93C26.68 3.95 26.66 3.99 26.61 4.05L22.72 10.92C22.68 10.99 22.65 11.06 22.62 11.13C22.60 11.20 22.57 11.28 22.54 11.35C22.48 11.20 22.43 11.06 22.36 10.93L18.35 4.05C18.31 3.99 18.28 3.95 18.24 3.93C18.20 3.92 18.16 3.92 18.09 3.92L17.60 3.92L16.41 3.92L16.41 4.19C16.41 4.34 16.51 4.42 16.69 4.44L16.83 4.44C16.90 4.44 17.00 4.45 17.14 4.45C17.28 4.45 17.43 4.47 17.60 4.47L17.60 13.26C17.43 13.26 17.28 13.27 17.14 13.27C17.00 13.27 16.90 13.29 16.83 13.29L16.69 13.29C16.51 13.30 16.41 13.38 16.41 13.54L16.41 13.82L17.60 13.82L18.21 13.82L19.43 13.82L19.43 13.54C19.43 13.38 19.33 13.30 19.15 13.29L19.01 13.29C18.94 13.29 18.83 13.27 18.69 13.27C18.55 13.27 18.38 13.26 18.21 13.26L18.21 5.38C18.21 5.25 18.21 5.12 18.20 4.98L22.20 11.91C22.27 12.04 22.37 12.10 22.48 12.10L22.60 12.10C22.72 12.10 22.81 12.04 22.88 11.91L26.77 4.98C26.75 5.12 26.75 5.25 26.75 5.38L26.75 13.26C26.59 13.26 26.42 13.27 26.28 13.27C26.14 13.27 26.03 13.29 25.96 13.29L25.82 13.29C25.63 13.30 25.54 13.38 25.54 13.54L25.54 13.82L26.75 13.82L27.38 13.82L28.56 13.82L28.56 13.54C28.56 13.38 28.46 13.30 28.28 13.29L28.15 13.29C28.08 13.29 27.97 13.27 27.83 13.27C27.69 13.27 27.55 13.26 27.38 13.26L27.38 4.47C27.55 4.47 27.69 4.45 27.83 4.45C27.97 4.45 28.08 4.44 28.15 4.44ZM43.13 4.68C42.55 4.17 41.66 3.92 40.50 3.92L38.09 3.92L36.90 3.92L36.90 4.19C36.90 4.34 37.00 4.42 37.18 4.44L37.32 4.44C37.39 4.44 37.49 4.45 37.63 4.45C37.77 4.45 37.93 4.47 38.09 4.47L38.09 13.26C37.93 13.26 37.77 13.27 37.63 13.27C37.49 13.27 37.39 13.29 37.32 13.29L37.18 13.29C37.00 13.30 36.90 13.38 36.90 13.54L36.90 13.82L38.09 13.82L38.81 13.82L39.98 13.82L39.98 13.54C39.98 13.38 39.89 13.30 39.70 13.29L39.58 13.29C39.51 13.29 39.40 13.27 39.26 13.27C39.12 13.27 38.98 13.26 38.81 13.26L38.81 9.83L40.50 9.83C41.05 9.83 41.54 9.74 41.97 9.60C42.41 9.45 42.77 9.25 43.08 8.99C43.39 8.72 43.62 8.41 43.78 8.05C43.95 7.69 44.02 7.29 44.02 6.86C44.02 5.92 43.72 5.18 43.13 4.68ZM43.11 7.81C42.98 8.11 42.80 8.36 42.56 8.57C42.32 8.78 42.03 8.95 41.68 9.07C41.33 9.20 40.94 9.25 40.50 9.25L38.81 9.25L38.81 4.48L40.50 4.48C41.43 4.48 42.13 4.69 42.60 5.10C43.06 5.50 43.30 6.09 43.30 6.85C43.30 7.20 43.23 7.52 43.11 7.81ZM61.47 8.86C61.47 8.11 61.35 7.41 61.12 6.79C60.90 6.17 60.58 5.64 60.16 5.19C59.74 4.75 59.25 4.40 58.67 4.16C58.10 3.92 57.44 3.79 56.74 3.79C56.04 3.79 55.41 3.92 54.84 4.16C54.26 4.40 53.76 4.75 53.34 5.19C52.92 5.64 52.60 6.17 52.37 6.79C52.15 7.41 52.02 8.11 52.02 8.86C52.02 9.63 52.15 10.33 52.37 10.95C52.60 11.56 52.92 12.10 53.34 12.54C53.76 12.99 54.26 13.33 54.84 13.57C55.41 13.80 56.04 13.93 56.74 13.93C57.44 13.93 58.10 13.80 58.67 13.57C59.25 13.33 59.74 12.99 60.16 12.54C60.58 12.10 60.90 11.56 61.12 10.95C61.35 10.33 61.47 9.63 61.47 8.86ZM60.72 8.86C60.72 9.56 60.63 10.18 60.44 10.72C60.24 11.27 59.98 11.75 59.63 12.12C59.28 12.50 58.86 12.81 58.37 13.01C57.88 13.20 57.34 13.30 56.74 13.30C56.15 13.30 55.62 13.20 55.13 13.01C54.64 12.81 54.22 12.50 53.87 12.12C53.52 11.75 53.24 11.27 53.05 10.72C52.85 10.18 52.77 9.56 52.77 8.86C52.77 8.18 52.85 7.55 53.05 7.00C53.24 6.45 53.52 5.98 53.87 5.60C54.22 5.22 54.64 4.91 55.13 4.72C55.62 4.52 56.15 4.41 56.74 4.41C57.34 4.41 57.88 4.52 58.37 4.72C58.86 4.91 59.28 5.22 59.63 5.60C59.98 5.98 60.24 6.45 60.44 7.00C60.63 7.55 60.72 8.18 60.72 8.86ZM82.99 3.92L82.45 3.92L82.40 3.92L80.93 3.92L80.93 4.19C80.93 4.34 81.02 4.42 81.20 4.44L81.33 4.44C81.38 4.44 81.48 4.45 81.62 4.45C81.76 4.45 81.90 4.47 82.07 4.47L79.69 12.24C79.66 12.33 79.63 12.43 79.62 12.54C79.60 12.66 79.58 12.75 79.55 12.87C79.52 12.75 79.51 12.63 79.48 12.53L79.39 12.24L76.59 4.10C76.57 4.05 76.54 3.99 76.50 3.96C76.45 3.93 76.40 3.92 76.33 3.92L76.13 3.92C76.06 3.92 76.01 3.93 75.96 3.98C75.92 4.02 75.88 4.05 75.87 4.10L73.07 12.25C73.04 12.35 73.01 12.43 72.98 12.54C72.95 12.64 72.94 12.75 72.91 12.88C72.90 12.78 72.87 12.67 72.84 12.54C72.83 12.43 72.80 12.33 72.77 12.24L70.39 4.47C70.56 4.47 70.70 4.45 70.83 4.45C70.95 4.45 71.04 4.44 71.09 4.44L71.20 4.44C71.39 4.42 71.48 4.34 71.48 4.19L71.48 3.92L70.01 3.92L69.43 3.92L68.82 3.92L68.82 4.19C68.82 4.34 68.92 4.42 69.10 4.44L69.20 4.44C69.24 4.44 69.29 4.45 69.36 4.45C69.43 4.45 69.51 4.47 69.59 4.47L72.55 13.82L73.18 13.82L76.12 5.22C76.16 5.11 76.19 5.00 76.22 4.87C76.24 5.00 76.27 5.11 76.31 5.22L79.24 13.82L79.88 13.82L82.82 4.47C82.91 4.47 82.98 4.45 83.05 4.45C83.12 4.45 83.17 4.44 83.22 4.44L83.31 4.44C83.50 4.42 83.58 4.34 83.58 4.19L83.58 3.92ZM92.82 3.92L91.63 3.92L91.63 4.19C91.63 4.34 91.73 4.42 91.91 4.44L92.05 4.44C92.12 4.44 92.22 4.45 92.36 4.45C92.50 4.45 92.65 4.47 92.82 4.47L92.82 13.26C92.65 13.26 92.50 13.27 92.36 13.27C92.22 13.27 92.12 13.29 92.05 13.29L91.91 13.29C91.73 13.30 91.64 13.38 91.64 13.54L91.64 13.82L92.82 13.82L98.76 13.82L98.76 13.22L98.76 11.76L98.41 11.76C98.21 11.76 98.13 11.89 98.11 12.11C98.11 12.14 98.10 12.19 98.10 12.29C98.10 12.39 98.10 12.53 98.08 12.74C98.07 12.95 98.06 13.09 98.06 13.22L93.53 13.22L93.53 9.09L97.48 9.09L97.48 8.51L93.53 8.51L93.53 4.51L98.06 4.51C98.08 5.12 98.11 5.50 98.11 5.63C98.13 5.85 98.21 5.96 98.41 5.96L98.76 5.96L98.76 4.51L98.76 3.92ZM115.33 13.29L115.23 13.29L115.05 13.29C114.97 13.29 114.88 13.27 114.80 13.27L111.83 9.53C111.75 9.42 111.64 9.32 111.52 9.25C111.96 9.21 112.35 9.11 112.70 8.96C113.05 8.81 113.33 8.61 113.58 8.37C113.82 8.13 114.02 7.85 114.14 7.55C114.27 7.24 114.34 6.89 114.34 6.51C114.34 5.66 114.06 5.03 113.50 4.58C112.94 4.14 112.08 3.92 110.94 3.92L108.53 3.92L107.35 3.92L107.35 4.19C107.35 4.34 107.44 4.42 107.62 4.44L107.76 4.44C107.83 4.44 107.93 4.45 108.07 4.45C108.21 4.45 108.36 4.47 108.53 4.47L108.53 13.26C108.36 13.26 108.21 13.27 108.07 13.27C107.93 13.27 107.83 13.29 107.76 13.29L107.62 13.29C107.44 13.30 107.34 13.38 107.34 13.54L107.34 13.82L108.53 13.82L109.24 13.82L110.42 13.82L110.42 13.54C110.42 13.38 110.32 13.30 110.14 13.29L110.00 13.29C109.93 13.29 109.83 13.27 109.69 13.27C109.55 13.27 109.41 13.26 109.24 13.26L109.24 9.34L110.42 9.34C110.61 9.34 110.75 9.35 110.84 9.39C110.92 9.44 111.01 9.52 111.09 9.62L114.27 13.64C114.32 13.71 114.37 13.75 114.42 13.78C114.48 13.80 114.55 13.82 114.62 13.82L114.69 13.82L115.23 13.82L115.60 13.82L115.60 13.54C115.60 13.38 115.51 13.30 115.33 13.29ZM110.84 8.81L109.24 8.81L109.24 4.48L110.94 4.48C111.82 4.48 112.49 4.66 112.95 5.00C113.41 5.33 113.64 5.87 113.64 6.57C113.64 6.92 113.58 7.21 113.46 7.49C113.33 7.77 113.13 7.99 112.90 8.19C112.66 8.39 112.36 8.55 112.01 8.65C111.66 8.75 111.27 8.81 110.84 8.81ZM126.62 4.44C126.80 4.42 126.88 4.34 126.88 4.19L126.88 3.91L125.71 3.91L124.99 3.91L123.80 3.91L123.80 4.19C123.80 4.34 123.90 4.42 124.08 4.44L124.22 4.44C124.29 4.44 124.39 4.45 124.53 4.45C124.67 4.45 124.82 4.47 124.99 4.47L124.99 13.26C124.82 13.26 124.67 13.27 124.53 13.27C124.39 13.27 124.29 13.29 124.22 13.29L124.08 13.29C123.90 13.30 123.80 13.38 123.80 13.54L123.80 13.82L124.99 13.82L125.71 13.82L126.88 13.82L126.88 13.54C126.88 13.38 126.80 13.30 126.62 13.29L126.48 13.29C126.41 13.29 126.31 13.27 126.17 13.27C126.03 13.27 125.87 13.26 125.71 13.26L125.71 4.47C125.87 4.47 126.03 4.45 126.17 4.45C126.31 4.45 126.41 4.44 126.48 4.44ZM144.06 3.92L143.43 3.92L142.21 3.92L142.21 4.19C142.21 4.34 142.31 4.42 142.49 4.44L142.63 4.44C142.70 4.44 142.81 4.45 142.95 4.45C143.09 4.45 143.26 4.47 143.43 4.47L143.43 12.22C143.43 12.35 143.43 12.49 143.44 12.63L137.03 4.05C136.99 3.99 136.96 3.95 136.92 3.93C136.88 3.92 136.84 3.91 136.77 3.91L136.42 3.91L135.23 3.91L135.23 4.19C135.23 4.34 135.32 4.42 135.51 4.44L135.65 4.44C135.72 4.44 135.81 4.45 135.95 4.45C136.09 4.45 136.25 4.47 136.42 4.47L136.42 13.26C136.25 13.26 136.09 13.27 135.95 13.27C135.81 13.27 135.72 13.29 135.65 13.29L135.51 13.29C135.32 13.30 135.23 13.38 135.23 13.54L135.23 13.82L136.42 13.82L137.03 13.82L138.25 13.82L138.25 13.54C138.25 13.38 138.15 13.30 137.97 13.29L137.83 13.29C137.76 13.29 137.63 13.27 137.49 13.27C137.35 13.27 137.20 13.26 137.03 13.26L137.03 5.49C137.03 5.36 137.03 5.22 137.02 5.08L143.46 13.68C143.53 13.78 143.60 13.82 143.71 13.82L144.06 13.82L144.06 4.47C144.23 4.47 144.37 4.45 144.51 4.45C144.65 4.45 144.76 4.44 144.83 4.44L144.96 4.44C145.14 4.42 145.24 4.34 145.24 4.19L145.24 3.92ZM158.91 9.32L158.91 9.72C158.91 9.76 158.94 9.80 158.97 9.83C159.00 9.86 159.04 9.87 159.10 9.87L161 9.87L161 12.54C160.78 12.67 160.55 12.78 160.34 12.88C160.13 12.98 159.89 13.08 159.66 13.15C159.42 13.22 159.15 13.27 158.87 13.30C158.59 13.33 158.28 13.34 157.95 13.34C157.33 13.34 156.77 13.24 156.27 13.03C155.76 12.82 155.33 12.53 154.97 12.15C154.60 11.77 154.32 11.30 154.13 10.74C153.93 10.18 153.82 9.56 153.82 8.86C153.82 8.18 153.93 7.56 154.13 7.01C154.32 6.47 154.60 5.99 154.97 5.61C155.33 5.24 155.78 4.94 156.30 4.73C156.81 4.52 157.39 4.42 158.03 4.42C159.21 4.42 160.15 4.58 160.83 4.90C160.87 5.81 160.90 6.31 160.90 6.41C160.92 6.64 161.01 6.75 161.21 6.75L161.55 6.75L161.55 4.51C161.11 4.31 160.55 4.14 159.85 4.00C159.15 3.86 158.56 3.81 158.06 3.81C157.30 3.81 156.62 3.92 156.00 4.16C155.39 4.40 154.87 4.75 154.43 5.18C154 5.61 153.68 6.15 153.44 6.78C153.20 7.39 153.09 8.09 153.09 8.86C153.09 9.63 153.20 10.32 153.44 10.95C153.68 11.58 154 12.10 154.42 12.54C154.84 12.99 155.36 13.33 155.95 13.57C156.53 13.80 157.18 13.93 157.89 13.93C158.31 13.93 158.69 13.90 159.04 13.86C159.39 13.80 159.71 13.73 160.02 13.65C160.33 13.55 160.61 13.44 160.87 13.30C161.14 13.16 161.39 13.01 161.64 12.84L161.64 9.32ZM186.14 9.91C186.00 9.65 185.81 9.39 185.57 9.21C185.33 9.03 185.08 8.88 184.79 8.75C184.49 8.62 184.17 8.51 183.86 8.41C183.55 8.32 183.25 8.20 182.95 8.11C182.66 7.99 182.39 7.87 182.15 7.71C181.92 7.56 181.73 7.38 181.59 7.15C181.45 6.93 181.37 6.65 181.37 6.31C181.37 6.06 181.43 5.82 181.52 5.59C181.62 5.35 181.76 5.15 181.94 4.97C182.13 4.79 182.35 4.65 182.63 4.55C182.91 4.45 183.22 4.40 183.58 4.40C184.25 4.40 184.87 4.51 185.43 4.75C185.47 5.54 185.50 5.99 185.50 6.06C185.51 6.29 185.60 6.41 185.79 6.41L186.13 6.41L186.13 4.38C185.25 4.00 184.41 3.81 183.58 3.81C183.12 3.81 182.71 3.88 182.35 4.02C181.99 4.16 181.69 4.34 181.45 4.58C181.22 4.82 181.02 5.08 180.89 5.39C180.77 5.70 180.71 6.02 180.71 6.36C180.71 6.78 180.78 7.14 180.92 7.42C181.06 7.70 181.26 7.92 181.50 8.12C181.73 8.32 181.99 8.46 182.28 8.58C182.57 8.71 182.90 8.82 183.20 8.92C183.51 9.02 183.81 9.11 184.11 9.21C184.41 9.31 184.67 9.45 184.91 9.60C185.15 9.76 185.33 9.94 185.47 10.16C185.61 10.39 185.68 10.68 185.68 11.03C185.68 11.35 185.63 11.66 185.51 11.94C185.40 12.22 185.25 12.46 185.04 12.67C184.83 12.88 184.56 13.05 184.25 13.16C183.95 13.29 183.60 13.33 183.20 13.33C182.42 13.33 181.76 13.20 181.23 12.95C181.22 12.75 181.22 12.54 181.20 12.32C181.19 12.10 181.19 11.91 181.17 11.76C181.16 11.61 181.16 11.52 181.16 11.51C181.15 11.28 181.05 11.17 180.85 11.17L180.52 11.17L180.52 13.02L180.52 13.20L180.52 13.38C181.37 13.75 182.25 13.93 183.18 13.93C183.68 13.93 184.13 13.85 184.52 13.69C184.91 13.54 185.25 13.31 185.51 13.05C185.78 12.78 186.00 12.46 186.14 12.10C186.28 11.73 186.35 11.34 186.35 10.92C186.35 10.51 186.28 10.18 186.14 9.91ZM202.13 3.92L201.94 3.92L194.64 3.92L194.43 3.92L194.33 3.92L194.33 5.96L194.68 5.96C194.88 5.96 194.96 5.85 194.98 5.63C194.98 5.53 195.01 5.17 195.03 4.52L197.93 4.52L197.93 13.26C197.76 13.26 197.62 13.27 197.48 13.27C197.34 13.27 197.23 13.29 197.16 13.29L197.04 13.29C196.85 13.30 196.76 13.38 196.76 13.54L196.76 13.82L197.93 13.82L198.65 13.82L199.84 13.82L199.84 13.54C199.84 13.38 199.74 13.30 199.56 13.29L199.42 13.29C199.35 13.29 199.25 13.27 199.11 13.27C198.97 13.27 198.81 13.26 198.65 13.26L198.65 4.52L201.53 4.52C201.57 5.24 201.59 5.60 201.59 5.63C201.60 5.85 201.70 5.96 201.89 5.96L202.23 5.96L202.23 3.92ZM218.65 3.92L217.94 3.92L216.58 3.92L216.58 4.19C216.58 4.34 216.68 4.42 216.86 4.44L217.03 4.44C217.13 4.44 217.27 4.45 217.43 4.45C217.60 4.45 217.77 4.47 217.94 4.47L217.94 10.04C217.94 10.50 217.87 10.92 217.73 11.33C217.59 11.73 217.39 12.08 217.13 12.38C216.86 12.67 216.55 12.89 216.17 13.06C215.80 13.23 215.38 13.31 214.90 13.31C214.42 13.31 213.99 13.23 213.61 13.06C213.23 12.89 212.91 12.66 212.66 12.36C212.39 12.07 212.21 11.72 212.07 11.33C211.93 10.93 211.86 10.50 211.86 10.04L211.86 4.47C212.03 4.47 212.20 4.45 212.37 4.45C212.53 4.45 212.67 4.44 212.77 4.44L212.94 4.44C213.12 4.42 213.22 4.34 213.22 4.19L213.22 3.92L211.86 3.92L211.15 3.92L209.97 3.92L209.97 4.19C209.97 4.34 210.06 4.42 210.24 4.44L210.38 4.44C210.45 4.44 210.55 4.45 210.69 4.45C210.83 4.45 210.98 4.47 211.15 4.47L211.15 10.04C211.15 10.58 211.23 11.09 211.40 11.56C211.57 12.04 211.82 12.46 212.14 12.81C212.46 13.16 212.87 13.44 213.33 13.64C213.79 13.83 214.33 13.93 214.90 13.93C215.47 13.93 215.99 13.83 216.45 13.64C216.92 13.44 217.32 13.16 217.64 12.81C217.97 12.46 218.22 12.04 218.39 11.56C218.55 11.09 218.65 10.58 218.65 10.04L218.65 4.47C218.82 4.47 218.96 4.45 219.10 4.45C219.24 4.45 219.35 4.44 219.42 4.44L219.55 4.44C219.73 4.42 219.83 4.34 219.83 4.19L219.83 3.92ZM236.85 6.80C236.63 6.19 236.31 5.68 235.89 5.25C235.47 4.82 234.98 4.48 234.40 4.26C233.83 4.03 233.17 3.92 232.47 3.92L229.04 3.92L227.85 3.92L227.85 4.19C227.85 4.34 227.95 4.42 228.13 4.44L228.27 4.44C228.34 4.44 228.44 4.45 228.58 4.45C228.72 4.45 228.87 4.47 229.04 4.47L229.04 13.26C228.87 13.26 228.72 13.27 228.58 13.27C228.44 13.27 228.34 13.29 228.27 13.29L228.13 13.29C227.95 13.30 227.85 13.38 227.85 13.54L227.85 13.82L229.04 13.82L232.47 13.82C233.17 13.82 233.83 13.71 234.40 13.48C234.98 13.26 235.47 12.92 235.89 12.49C236.31 12.05 236.63 11.54 236.85 10.92C237.08 10.30 237.20 9.63 237.20 8.86C237.20 8.11 237.08 7.42 236.85 6.80ZM236.17 10.72C235.97 11.27 235.72 11.72 235.37 12.10C235.02 12.47 234.60 12.75 234.11 12.95C233.62 13.15 233.07 13.24 232.47 13.24L229.75 13.24L229.75 4.49L232.47 4.49C233.07 4.49 233.62 4.59 234.11 4.79C234.60 4.98 235.02 5.26 235.37 5.64C235.72 6.02 235.97 6.47 236.17 7.01C236.36 7.56 236.46 8.18 236.46 8.86C236.46 9.56 236.36 10.18 236.17 10.72ZM246.68 3.92L245.49 3.92L245.49 4.19C245.49 4.34 245.59 4.42 245.77 4.44L245.91 4.44C245.98 4.44 246.08 4.45 246.22 4.45C246.36 4.45 246.51 4.47 246.68 4.47L246.68 13.26C246.51 13.26 246.36 13.27 246.22 13.27C246.08 13.27 245.98 13.29 245.91 13.29L245.77 13.29C245.59 13.30 245.50 13.38 245.50 13.54L245.50 13.82L246.68 13.82L252.62 13.82L252.62 13.22L252.62 11.76L252.27 11.76C252.07 11.76 251.99 11.89 251.97 12.11C251.97 12.14 251.96 12.19 251.96 12.29C251.96 12.39 251.96 12.53 251.94 12.74C251.93 12.95 251.92 13.09 251.92 13.22L247.39 13.22L247.39 9.09L251.34 9.09L251.34 8.51L247.39 8.51L247.39 4.51L251.92 4.51C251.94 5.12 251.97 5.50 251.97 5.63C251.99 5.85 252.07 5.96 252.27 5.96L252.62 5.96L252.62 4.51L252.62 3.92ZM270.03 3.92L269.40 3.92L268.18 3.92L268.18 4.19C268.18 4.34 268.28 4.42 268.46 4.44L268.60 4.44C268.67 4.44 268.79 4.45 268.93 4.45C269.07 4.45 269.23 4.47 269.40 4.47L269.40 12.22C269.40 12.35 269.40 12.49 269.42 12.63L263.00 4.05C262.96 3.99 262.93 3.95 262.89 3.93C262.85 3.92 262.81 3.91 262.74 3.91L262.39 3.91L261.20 3.91L261.20 4.19C261.20 4.34 261.30 4.42 261.48 4.44L261.62 4.44C261.69 4.44 261.79 4.45 261.93 4.45C262.07 4.45 262.22 4.47 262.39 4.47L262.39 13.26C262.22 13.26 262.07 13.27 261.93 13.27C261.79 13.27 261.69 13.29 261.62 13.29L261.48 13.29C261.30 13.30 261.20 13.38 261.20 13.54L261.20 13.82L262.39 13.82L263.00 13.82L264.22 13.82L264.22 13.54C264.22 13.38 264.12 13.30 263.94 13.29L263.80 13.29C263.73 13.29 263.61 13.27 263.47 13.27C263.33 13.27 263.17 13.26 263.00 13.26L263.00 5.49C263.00 5.36 263.00 5.22 262.99 5.08L269.43 13.68C269.50 13.78 269.57 13.82 269.68 13.82L270.03 13.82L270.03 4.47C270.20 4.47 270.34 4.45 270.48 4.45C270.62 4.45 270.73 4.44 270.80 4.44L270.93 4.44C271.11 4.42 271.21 4.34 271.21 4.19L271.21 3.92ZM286.76 3.92L286.57 3.92L279.27 3.92L279.06 3.92L278.96 3.92L278.96 5.96L279.31 5.96C279.51 5.96 279.59 5.85 279.61 5.63C279.61 5.53 279.64 5.17 279.66 4.52L282.56 4.52L282.56 13.26C282.39 13.26 282.25 13.27 282.11 13.27C281.97 13.27 281.86 13.29 281.79 13.29L281.67 13.29C281.48 13.30 281.39 13.38 281.39 13.54L281.39 13.82L282.56 13.82L283.28 13.82L284.47 13.82L284.47 13.54C284.47 13.38 284.37 13.30 284.19 13.29L284.05 13.29C283.98 13.29 283.88 13.27 283.74 13.27C283.60 13.27 283.44 13.26 283.28 13.26L283.28 4.52L286.16 4.52C286.20 5.24 286.22 5.60 286.22 5.63C286.23 5.85 286.33 5.96 286.52 5.96L286.86 5.96L286.86 3.92ZM300.69 9.91C300.55 9.65 300.36 9.39 300.12 9.21C299.88 9.03 299.63 8.88 299.33 8.75C299.04 8.62 298.72 8.51 298.41 8.41C298.10 8.32 297.79 8.20 297.50 8.11C297.21 7.99 296.94 7.87 296.70 7.71C296.46 7.56 296.28 7.38 296.14 7.15C296.00 6.93 295.92 6.65 295.92 6.31C295.92 6.06 295.97 5.82 296.07 5.59C296.17 5.35 296.31 5.15 296.49 4.97C296.67 4.79 296.90 4.65 297.18 4.55C297.46 4.45 297.77 4.40 298.13 4.40C298.80 4.40 299.42 4.51 299.98 4.75C300.02 5.54 300.05 5.99 300.05 6.06C300.06 6.29 300.15 6.41 300.34 6.41L300.68 6.41L300.68 4.38C299.80 4.00 298.96 3.81 298.13 3.81C297.67 3.81 297.26 3.88 296.90 4.02C296.53 4.16 296.24 4.34 296.00 4.58C295.76 4.82 295.57 5.08 295.44 5.39C295.32 5.70 295.26 6.02 295.26 6.36C295.26 6.78 295.33 7.14 295.47 7.42C295.61 7.70 295.81 7.92 296.04 8.12C296.28 8.32 296.53 8.46 296.83 8.58C297.12 8.71 297.44 8.82 297.75 8.92C298.06 9.02 298.35 9.11 298.66 9.21C298.96 9.31 299.22 9.45 299.46 9.60C299.70 9.76 299.88 9.94 300.02 10.16C300.16 10.39 300.23 10.68 300.23 11.03C300.23 11.35 300.17 11.66 300.06 11.94C299.95 12.22 299.80 12.46 299.59 12.67C299.38 12.88 299.11 13.05 298.80 13.16C298.49 13.29 298.14 13.33 297.75 13.33C296.97 13.33 296.31 13.20 295.78 12.95C295.76 12.75 295.76 12.54 295.75 12.32C295.74 12.10 295.74 11.91 295.72 11.76C295.71 11.61 295.71 11.52 295.71 11.51C295.69 11.28 295.60 11.17 295.40 11.17L295.06 11.17L295.06 13.02L295.06 13.20L295.06 13.38C295.92 13.75 296.80 13.93 297.72 13.93C298.23 13.93 298.68 13.85 299.07 13.69C299.46 13.54 299.80 13.31 300.06 13.05C300.33 12.78 300.55 12.46 300.69 12.10C300.83 11.73 300.90 11.34 300.90 10.92C300.90 10.51 300.83 10.18 300.69 9.91ZM327.05 3.92L326.86 3.92L319.56 3.92L319.35 3.92L319.26 3.92L319.26 5.96L319.61 5.96C319.80 5.96 319.89 5.85 319.90 5.63C319.90 5.53 319.93 5.17 319.96 4.52L322.85 4.52L322.85 13.26C322.69 13.26 322.55 13.27 322.41 13.27C322.27 13.27 322.15 13.29 322.08 13.29L321.96 13.29C321.78 13.30 321.68 13.38 321.68 13.54L321.68 13.82L322.85 13.82L323.57 13.82L324.76 13.82L324.76 13.54C324.76 13.38 324.66 13.30 324.48 13.29L324.34 13.29C324.27 13.29 324.17 13.27 324.03 13.27C323.89 13.27 323.74 13.26 323.57 13.26L323.57 4.52L326.45 4.52C326.49 5.24 326.51 5.60 326.51 5.63C326.52 5.85 326.62 5.96 326.82 5.96L327.15 5.96L327.15 3.92ZM344.44 8.86C344.44 8.11 344.32 7.41 344.09 6.79C343.87 6.17 343.55 5.64 343.13 5.19C342.71 4.75 342.22 4.40 341.64 4.16C341.07 3.92 340.41 3.79 339.71 3.79C339.01 3.79 338.38 3.92 337.81 4.16C337.23 4.40 336.73 4.75 336.31 5.19C335.89 5.64 335.57 6.17 335.34 6.79C335.12 7.41 334.99 8.11 334.99 8.86C334.99 9.63 335.12 10.33 335.34 10.95C335.57 11.56 335.89 12.10 336.31 12.54C336.73 12.99 337.23 13.33 337.81 13.57C338.38 13.80 339.01 13.93 339.71 13.93C340.41 13.93 341.07 13.80 341.64 13.57C342.22 13.33 342.71 12.99 343.13 12.54C343.55 12.10 343.87 11.56 344.09 10.95C344.32 10.33 344.44 9.63 344.44 8.86ZM343.69 8.86C343.69 9.56 343.60 10.18 343.41 10.72C343.21 11.27 342.94 11.75 342.59 12.12C342.24 12.50 341.82 12.81 341.33 13.01C340.84 13.20 340.31 13.30 339.71 13.30C339.12 13.30 338.59 13.20 338.10 13.01C337.61 12.81 337.19 12.50 336.84 12.12C336.49 11.75 336.21 11.27 336.01 10.72C335.82 10.18 335.73 9.56 335.73 8.86C335.73 8.18 335.82 7.55 336.01 7.00C336.21 6.45 336.49 5.98 336.84 5.60C337.19 5.22 337.61 4.91 338.10 4.72C338.59 4.52 339.12 4.41 339.71 4.41C340.31 4.41 340.84 4.52 341.33 4.72C341.82 4.91 342.24 5.22 342.59 5.60C342.94 5.98 343.21 6.45 343.41 7.00C343.60 7.55 343.69 8.18 343.69 8.86ZM369.46 11.97C369.26 11.97 369.18 12.08 369.17 12.31C369.17 12.32 369.17 12.38 369.15 12.43C369.14 12.49 369.14 12.59 369.12 12.71C369.11 12.84 369.10 13.01 369.08 13.20L364.99 13.20L364.99 4.47C365.16 4.47 365.30 4.45 365.44 4.45C365.58 4.45 365.69 4.44 365.76 4.44L365.89 4.44C366.07 4.42 366.17 4.34 366.17 4.19L366.17 3.92L364.99 3.92L364.28 3.92L363.09 3.92L363.09 4.19C363.09 4.34 363.19 4.42 363.37 4.44L363.51 4.44C363.58 4.44 363.68 4.45 363.82 4.45C363.96 4.45 364.11 4.47 364.28 4.47L364.28 13.26C364.11 13.26 363.96 13.27 363.82 13.27C363.68 13.27 363.58 13.29 363.51 13.29L363.37 13.29C363.19 13.30 363.09 13.38 363.09 13.54L363.09 13.82L364.28 13.82L369.56 13.82L369.68 13.82L369.81 13.82L369.81 13.55L369.81 12.99L369.81 11.97L369.53 11.97ZM379.43 3.92L378.24 3.92L378.24 4.19C378.24 4.34 378.34 4.42 378.52 4.44L378.66 4.44C378.73 4.44 378.83 4.45 378.97 4.45C379.11 4.45 379.26 4.47 379.43 4.47L379.43 13.26C379.26 13.26 379.11 13.27 378.97 13.27C378.83 13.27 378.73 13.29 378.66 13.29L378.52 13.29C378.34 13.30 378.25 13.38 378.25 13.54L378.25 13.82L379.43 13.82L385.36 13.82L385.36 13.22L385.36 11.76L385.01 11.76C384.82 11.76 384.73 11.89 384.72 12.11C384.72 12.14 384.71 12.19 384.71 12.29C384.71 12.39 384.71 12.53 384.69 12.74C384.68 12.95 384.66 13.09 384.66 13.22L380.14 13.22L380.14 9.09L384.09 9.09L384.09 8.51L380.14 8.51L380.14 4.51L384.66 4.51C384.69 5.12 384.72 5.50 384.72 5.63C384.73 5.85 384.82 5.96 385.01 5.96L385.36 5.96L385.36 4.51L385.36 3.92ZM403.24 13.22L402.78 13.17L399.00 3.91L398.29 3.91L394.49 13.17L394.04 13.22C393.86 13.23 393.78 13.33 393.78 13.50L393.78 13.82L394.23 13.82L394.52 13.82L394.77 13.82L394.87 13.82L396.19 13.82L396.19 13.50C396.19 13.31 396.07 13.23 395.86 13.22C395.85 13.22 395.82 13.20 395.78 13.20C395.74 13.20 395.68 13.19 395.58 13.19C395.49 13.19 395.36 13.19 395.22 13.17L396.20 10.75L396.27 10.57L401.00 10.57L401.07 10.75L402.05 13.17C401.91 13.19 401.80 13.19 401.70 13.19C401.60 13.19 401.53 13.20 401.49 13.20C401.45 13.20 401.42 13.22 401.41 13.22C401.20 13.23 401.09 13.31 401.09 13.50L401.09 13.82L402.40 13.82L402.50 13.82L402.77 13.82L403.05 13.82L403.51 13.82L403.51 13.50C403.51 13.33 403.42 13.23 403.24 13.22ZM398.44 5.22C398.47 5.14 398.51 5.04 398.54 4.94C398.57 4.84 398.61 4.75 398.64 4.63C398.66 4.75 398.71 4.84 398.73 4.94C398.76 5.04 398.80 5.12 398.83 5.21L400.79 10.04L396.49 10.04ZM419.73 13.29L419.64 13.29L419.45 13.29C419.37 13.29 419.29 13.27 419.20 13.27L416.23 9.53C416.15 9.42 416.04 9.32 415.93 9.25C416.36 9.21 416.75 9.11 417.10 8.96C417.45 8.81 417.73 8.61 417.98 8.37C418.22 8.13 418.42 7.85 418.54 7.55C418.67 7.24 418.74 6.89 418.74 6.51C418.74 5.66 418.46 5.03 417.90 4.58C417.34 4.14 416.49 3.92 415.34 3.92L412.93 3.92L411.75 3.92L411.75 4.19C411.75 4.34 411.84 4.42 412.02 4.44L412.16 4.44C412.23 4.44 412.33 4.45 412.47 4.45C412.61 4.45 412.76 4.47 412.93 4.47L412.93 13.26C412.76 13.26 412.61 13.27 412.47 13.27C412.33 13.27 412.23 13.29 412.16 13.29L412.02 13.29C411.84 13.30 411.74 13.38 411.74 13.54L411.74 13.82L412.93 13.82L413.64 13.82L414.82 13.82L414.82 13.54C414.82 13.38 414.72 13.30 414.54 13.29L414.40 13.29C414.33 13.29 414.23 13.27 414.09 13.27C413.95 13.27 413.81 13.26 413.64 13.26L413.64 9.34L414.82 9.34C415.02 9.34 415.16 9.35 415.24 9.39C415.32 9.44 415.41 9.52 415.49 9.62L418.67 13.64C418.73 13.71 418.77 13.75 418.82 13.78C418.88 13.80 418.95 13.82 419.02 13.82L419.09 13.82L419.64 13.82L420.00 13.82L420.00 13.54C420.00 13.38 419.92 13.30 419.73 13.29ZM415.24 8.81L413.64 8.81L413.64 4.48L415.34 4.48C416.22 4.48 416.89 4.66 417.35 5.00C417.82 5.33 418.04 5.87 418.04 6.57C418.04 6.92 417.98 7.21 417.86 7.49C417.73 7.77 417.54 7.99 417.30 8.19C417.06 8.39 416.77 8.55 416.42 8.65C416.07 8.75 415.67 8.81 415.24 8.81ZM437.04 3.92L436.41 3.92L435.19 3.92L435.19 4.19C435.19 4.34 435.29 4.42 435.47 4.44L435.61 4.44C435.68 4.44 435.79 4.45 435.93 4.45C436.07 4.45 436.24 4.47 436.41 4.47L436.41 12.22C436.41 12.35 436.41 12.49 436.42 12.63L430.01 4.05C429.97 3.99 429.94 3.95 429.90 3.93C429.86 3.92 429.81 3.91 429.74 3.91L429.39 3.91L428.20 3.91L428.20 4.19C428.20 4.34 428.30 4.42 428.48 4.44L428.62 4.44C428.69 4.44 428.79 4.45 428.93 4.45C429.07 4.45 429.23 4.47 429.39 4.47L429.39 13.26C429.23 13.26 429.07 13.27 428.93 13.27C428.79 13.27 428.69 13.29 428.62 13.29L428.48 13.29C428.30 13.30 428.20 13.38 428.20 13.54L428.20 13.82L429.39 13.82L430.01 13.82L431.23 13.82L431.23 13.54C431.23 13.38 431.13 13.30 430.95 13.29L430.81 13.29C430.74 13.29 430.61 13.27 430.47 13.27C430.33 13.27 430.18 13.26 430.01 13.26L430.01 5.49C430.01 5.36 430.01 5.22 430.00 5.08L436.44 13.68C436.51 13.78 436.58 13.82 436.69 13.82L437.04 13.82L437.04 4.47C437.21 4.47 437.35 4.45 437.49 4.45C437.63 4.45 437.74 4.44 437.81 4.44L437.93 4.44C438.12 4.42 438.21 4.34 438.21 4.19L438.21 3.92ZM468.50 4.44C468.68 4.42 468.78 4.34 468.78 4.19L468.78 3.92L467.60 3.92L467.10 3.92C467.03 3.92 466.98 3.92 466.94 3.93C466.90 3.95 466.87 3.99 466.83 4.05L462.94 10.92C462.90 10.99 462.87 11.06 462.84 11.13C462.81 11.20 462.78 11.28 462.76 11.35C462.70 11.20 462.64 11.06 462.57 10.93L458.57 4.05C458.53 3.99 458.50 3.95 458.46 3.93C458.42 3.92 458.37 3.92 458.30 3.92L457.81 3.92L456.62 3.92L456.62 4.19C456.62 4.34 456.72 4.42 456.90 4.44L457.04 4.44C457.11 4.44 457.21 4.45 457.35 4.45C457.49 4.45 457.65 4.47 457.81 4.47L457.81 13.26C457.65 13.26 457.49 13.27 457.35 13.27C457.21 13.27 457.11 13.29 457.04 13.29L456.90 13.29C456.72 13.30 456.62 13.38 456.62 13.54L456.62 13.82L457.81 13.82L458.43 13.82L459.65 13.82L459.65 13.54C459.65 13.38 459.55 13.30 459.37 13.29L459.23 13.29C459.16 13.29 459.05 13.27 458.91 13.27C458.77 13.27 458.60 13.26 458.43 13.26L458.43 5.38C458.43 5.25 458.43 5.12 458.42 4.98L462.42 11.91C462.49 12.04 462.59 12.10 462.70 12.10L462.81 12.10C462.94 12.10 463.02 12.04 463.09 11.91L466.98 4.98C466.97 5.12 466.97 5.25 466.97 5.38L466.97 13.26C466.80 13.26 466.63 13.27 466.49 13.27C466.35 13.27 466.24 13.29 466.17 13.29L466.03 13.29C465.85 13.30 465.75 13.38 465.75 13.54L465.75 13.82L466.97 13.82L467.60 13.82L468.78 13.82L468.78 13.54C468.78 13.38 468.68 13.30 468.50 13.29L468.37 13.29C468.30 13.29 468.19 13.27 468.05 13.27C467.91 13.27 467.77 13.26 467.60 13.26L467.60 4.47C467.77 4.47 467.91 4.45 468.05 4.45C468.19 4.45 468.30 4.44 468.37 4.44ZM486.42 13.22L485.95 13.17L482.17 3.91L481.46 3.91L477.67 13.17L477.22 13.22C477.04 13.23 476.95 13.33 476.95 13.50L476.95 13.82L477.40 13.82L477.69 13.82L477.95 13.82L478.04 13.82L479.36 13.82L479.36 13.50C479.36 13.31 479.25 13.23 479.04 13.22C479.02 13.22 479.00 13.20 478.95 13.20C478.91 13.20 478.86 13.19 478.76 13.19C478.66 13.19 478.53 13.19 478.39 13.17L479.37 10.75L479.44 10.57L484.18 10.57L484.25 10.75L485.23 13.17C485.09 13.19 484.97 13.19 484.88 13.19C484.78 13.19 484.71 13.20 484.67 13.20C484.62 13.20 484.60 13.22 484.58 13.22C484.37 13.23 484.26 13.31 484.26 13.50L484.26 13.82L485.58 13.82L485.67 13.82L485.94 13.82L486.22 13.82L486.68 13.82L486.68 13.50C486.68 13.33 486.60 13.23 486.42 13.22ZM481.61 5.22C481.64 5.14 481.68 5.04 481.71 4.94C481.74 4.84 481.78 4.75 481.81 4.63C481.84 4.75 481.88 4.84 481.91 4.94C481.94 5.04 481.98 5.12 482.01 5.21L483.97 10.04L479.67 10.04ZM501.34 3.92L501.14 3.92L493.85 3.92L493.64 3.92L493.54 3.92L493.54 5.96L493.89 5.96C494.09 5.96 494.17 5.85 494.19 5.63C494.19 5.53 494.21 5.17 494.24 4.52L497.14 4.52L497.14 13.26C496.97 13.26 496.83 13.27 496.69 13.27C496.55 13.27 496.44 13.29 496.37 13.29L496.24 13.29C496.06 13.30 495.96 13.38 495.96 13.54L495.96 13.82L497.14 13.82L497.85 13.82L499.04 13.82L499.04 13.54C499.04 13.38 498.95 13.30 498.76 13.29L498.62 13.29C498.55 13.29 498.46 13.27 498.32 13.27C498.18 13.27 498.02 13.26 497.85 13.26L497.85 4.52L500.74 4.52C500.78 5.24 500.79 5.60 500.79 5.63C500.81 5.85 500.91 5.96 501.10 5.96L501.44 5.96L501.44 3.92ZM519.27 4.44C519.46 4.42 519.55 4.34 519.55 4.19L519.55 3.92L518.38 3.92L517.65 3.92L516.47 3.92L516.47 4.19C516.47 4.34 516.57 4.42 516.75 4.44L516.88 4.44C516.95 4.44 517.06 4.45 517.20 4.45C517.34 4.45 517.48 4.47 517.65 4.47L517.65 8.53L511.45 8.53L511.45 4.47C511.62 4.47 511.77 4.45 511.91 4.45C512.05 4.45 512.15 4.44 512.22 4.44L512.36 4.44C512.54 4.42 512.62 4.34 512.62 4.19L512.62 3.92L511.45 3.92L510.73 3.92L509.54 3.92L509.54 4.19C509.54 4.34 509.64 4.42 509.82 4.44L509.96 4.44C510.03 4.44 510.13 4.45 510.27 4.45C510.41 4.45 510.57 4.47 510.73 4.47L510.73 13.26C510.57 13.26 510.41 13.27 510.27 13.27C510.13 13.27 510.03 13.29 509.96 13.29L509.82 13.29C509.64 13.30 509.54 13.38 509.54 13.54L509.54 13.82L510.73 13.82L511.45 13.82L512.62 13.82L512.62 13.54C512.62 13.38 512.54 13.30 512.36 13.29L512.22 13.29C512.15 13.29 512.05 13.27 511.91 13.27C511.77 13.27 511.62 13.26 511.45 13.26L511.45 9.07L517.65 9.07L517.65 13.26C517.48 13.26 517.34 13.27 517.20 13.27C517.06 13.27 516.95 13.29 516.88 13.29L516.75 13.29C516.57 13.30 516.47 13.38 516.47 13.54L516.47 13.82L517.65 13.82L518.38 13.82L519.55 13.82L519.55 13.54C519.55 13.38 519.46 13.30 519.27 13.29L519.15 13.29C519.08 13.29 518.97 13.27 518.83 13.27C518.69 13.27 518.55 13.26 518.38 13.26L518.38 4.47C518.55 4.47 518.69 4.45 518.83 4.45C518.97 4.45 519.08 4.44 519.15 4.44Z"></path></g></svg>