<svg data-v-29081953="" xmlns="http://www.w3.org/2000/svg" viewBox="0 0 300 300"><!----><defs data-v-29081953=""><!----></defs><rect data-v-29081953="" fill="#DEE5F3" x="0" y="0" width="300px" height="300px" class="logo-background-square"></rect><!----><defs data-v-29081953=""><linearGradient data-v-29081953="" gradientTransform="rotate(25)" id="266b369c-27ae-4919-b425-5305104a87b8" x1="0%" y1="0%" x2="100%" y2="0%"><stop data-v-29081953="" offset="0%" stop-color="#288B58" stop-opacity="1"></stop><stop data-v-29081953="" offset="100%" stop-color="#1522F1" stop-opacity="1"></stop></linearGradient></defs><g data-v-29081953="" id="b488ed0d-b3ca-4acf-a6d2-7151840aac93" fill="url(#266b369c-27ae-4919-b425-5305104a87b8)" stroke="none" transform="matrix(3.055544870908447,0,0,3.055544870908447,-2.7776165367396004,-2.777628192718254)"><path d="M24.89 14c-2.46 0-4.5 1.98-4.5 4.44v48.72c0 2.46 2.04 4.5 4.5 4.5h14.4l-14.1 12.96c-.54.48-.18 1.38.539 1.38H78.77a.82.82 0 0 0 .84-.84l-.06-11.04V36.5c0-.48-.359-.84-.779-.84-.24 0-.42.06-.601.18L63.29 49.58V18.44c0-2.46-2.04-4.44-4.5-4.44h-33.9zm0 1.62h33.9c1.62 0 2.88 1.26 2.88 2.82v32.64l-3.12 2.82v-4.92c0-1.08-.899-1.98-1.979-1.98h-3.42c-1.08 0-1.98.9-1.98 1.98v11.7l-10.14 9.36H24.89c-1.62 0-2.88-1.26-2.88-2.88V18.44c0-1.56 1.26-2.82 2.88-2.82zm2.4 3.72c-1.2 0-2.16.96-2.16 2.16v4.92c0 1.2.96 2.16 2.16 2.16h29.101a2.15 2.15 0 0 0 2.159-2.16V21.5c0-1.2-.96-2.16-2.159-2.16H27.29zm0 1.62h29.101c.359 0 .6.24.6.54v4.92c0 .3-.24.54-.6.54H27.29c-.36 0-.6-.24-.6-.54V21.5c0-.3.24-.54.6-.54zm-.24 14.28c-1.08 0-1.92.9-1.92 1.92v3.48c0 1.08.84 1.92 1.92 1.92h3.48c1.08 0 1.92-.84 1.92-1.92v-3.48c0-1.02-.84-1.92-1.92-1.92h-3.48zm13.02 0c-1.021 0-1.92.9-1.92 1.92v3.48c0 1.08.899 1.92 1.92 1.92h3.54c1.02 0 1.92-.84 1.92-1.92v-3.48c0-1.02-.9-1.92-1.92-1.92h-3.54zm13.08 0c-1.08 0-1.98.9-1.98 1.92v3.48c0 1.08.9 1.92 1.98 1.92h3.479c1.021 0 1.92-.84 1.92-1.92v-3.48c0-1.02-.899-1.92-1.92-1.92H53.15zm-26.1 1.62h3.48c.239 0 .359.12.359.3v3.48c0 .18-.12.36-.359.36h-3.48c-.24 0-.359-.18-.359-.36v-3.48c-.001-.18.119-.3.359-.3zm13.02 0h3.54c.18 0 .3.12.3.3v3.48c0 .18-.12.36-.3.36h-3.54c-.181 0-.301-.18-.301-.36v-3.48c.001-.18.121-.3.301-.3zm13.08 0h3.479c.181 0 .36.12.36.3v3.48c0 .18-.18.36-.36.36H53.15c-.24 0-.36-.18-.36-.36v-3.48c0-.18.12-.3.36-.3zm24.781 1.44v35.82l.06 10.26h-3.78v-1.86c0-.479-.359-.84-.779-.84-.48 0-.841.36-.841.84v1.86h-.72v-3.3c.061-.48-.36-.84-.78-.84s-.779.359-.779.84v3.3h-.722v-1.86a.82.82 0 0 0-.84-.84c-.42 0-.779.36-.779.84v1.86H64.01v-1.86a.82.82 0 0 0-.84-.84c-.42 0-.779.36-.779.84v1.86h-.721v-3.3c0-.48-.359-.84-.779-.84-.48 0-.841.359-.78.84v3.3h-.72v-1.86c0-.479-.36-.84-.841-.84-.42 0-.779.36-.779.84v1.86h-3.96v-1.86a.82.82 0 0 0-.84-.84c-.421 0-.78.36-.78.84v1.86h-.72v-3.3c0-.48-.36-.84-.78-.84a.82.82 0 0 0-.841.84v3.3h-.66v-1.86c0-.479-.421-.84-.841-.84s-.779.36-.779.84v1.86h-3.96v-1.86c0-.479-.36-.84-.841-.84-.42 0-.779.36-.779.84v1.86h-.72v-3.3a.82.82 0 0 0-.84-.84c-.42 0-.779.359-.779.84v3.3h-.721v-1.86c0-.479-.359-.84-.779-.84-.48 0-.78.36-.78.84v1.86H27.77l50.161-46.14v.06zM27.05 47c-1.08 0-1.92.9-1.92 1.92v3.48c0 1.08.84 1.92 1.92 1.92h3.48c1.08 0 1.92-.84 1.92-1.92v-3.48c0-1.02-.84-1.92-1.92-1.92h-3.48zm13.02 0c-1.021 0-1.92.9-1.92 1.92v3.48c0 1.08.899 1.92 1.92 1.92h3.54c1.02 0 1.92-.84 1.92-1.92v-3.48c0-1.02-.9-1.92-1.92-1.92h-3.54zm-13.02 1.62h3.48c.239 0 .359.12.359.3v3.48c0 .18-.12.359-.359.359h-3.48c-.24 0-.359-.18-.359-.359v-3.48c-.001-.18.119-.3.359-.3zm13.02 0h3.54c.18 0 .3.12.3.3v3.48c0 .18-.12.359-.3.359h-3.54c-.181 0-.301-.18-.301-.359v-3.48c.001-.18.121-.3.301-.3zm13.08 0h3.42c.24 0 .42.18.42.36v6.42l-4.2 3.84V48.98c0-.18.12-.36.36-.36zm17.88 4.08c-.24 0-.48.12-.66.359l.061-.119-23.821 21.9c-.54.54-.24 1.38.54 1.44l23.94-.06c.42 0 .78-.359.78-.779V53.48c0-.48-.36-.84-.84-.78zm-.78 2.58v15.18l.061 4.2H49.19l3.24-3h6.359c2.46 0 4.5-2.04 4.5-4.5V61.7l6.961-6.42zm-43.2 3.48c-1.08 0-1.92.9-1.92 1.92v3.48c0 1.08.84 1.92 1.92 1.92h3.48c1.08 0 1.92-.84 1.92-1.92v-3.48c0-1.02-.84-1.92-1.92-1.92h-3.48zm13.02 0c-1.021 0-1.92.9-1.92 1.92v3.48c0 1.08.899 1.92 1.92 1.92h3.54c1.02 0 1.92-.84 1.92-1.92v-3.48c0-1.02-.9-1.92-1.92-1.92h-3.54zm-13.02 1.62h3.48c.239 0 .359.12.359.3v3.48c0 .18-.12.359-.359.359h-3.48c-.24 0-.359-.18-.359-.359v-3.48c-.001-.18.119-.3.359-.3zm13.02 0h3.54c.18 0 .3.12.3.3v3.48c0 .18-.12.359-.3.359h-3.54c-.181 0-.301-.18-.301-.359v-3.48c.001-.18.121-.3.301-.3zm21.6 2.82v3.96c0 1.62-1.26 2.88-2.88 2.88h-4.62l7.5-6.84z"></path></g><!----></svg>